<?xml version="1.0" encoding="UTF-8"?><svg id="_イヤー_2" xmlns="http://www.w3.org/2000/svg" width="70.9mm" height="95.5mm" xmlns:xlink="http://www.w3.org/1999/xlink" viewBox="0 0 201.1 270.8"><defs><style>.cls-1{fill:url(#linear-gradient);}.cls-2{fill:#fad9e7;}.cls-3{fill:#f5bbd4;}.cls-4{fill:#f6c1d8;}.cls-5{fill:#ef8bb6;}.cls-6{fill:#e61673;}.cls-7{fill:#fbe0ec;}.cls-8{fill:url(#_規グラデーションスウォッチ_1-2);}.cls-9{fill:url(#_規グラデーションスウォッチ_1-4);}.cls-10{fill:url(#_規グラデーションスウォッチ_1-3);}.cls-11{fill:url(#_規グラデーションスウォッチ_1);}.cls-12{fill:#231815;}.cls-12,.cls-13{fill-rule:evenodd;}</style><linearGradient id="_規グラデーションスウォッチ_1" x1="45.7" y1="113.6" x2="45.7" y2="70.4" gradientTransform="matrix(1, 0, 0, 1, 0, 0)" gradientUnits="userSpaceOnUse"><stop offset="0" stop-color="#e4007f"/><stop offset="0" stop-color="#e51488"/><stop offset=".1" stop-color="#ea46a0"/><stop offset=".3" stop-color="#ee70b4"/><stop offset=".4" stop-color="#f293c4"/><stop offset=".5" stop-color="#f4aed1"/><stop offset=".6" stop-color="#f6c1da"/><stop offset=".7" stop-color="#f7cde0"/><stop offset=".8" stop-color="#f8d1e2"/></linearGradient><linearGradient id="linear-gradient" x1="40.7" y1="118.6" x2="0" y2="103.7" gradientTransform="matrix(1, 0, 0, 1, 0, 0)" gradientUnits="userSpaceOnUse"><stop offset="0" stop-color="#e4007f"/><stop offset="0" stop-color="#e51488"/><stop offset=".1" stop-color="#ea46a0"/><stop offset=".3" stop-color="#ee70b4"/><stop offset=".4" stop-color="#f293c4"/><stop offset=".5" stop-color="#f4aed1"/><stop offset=".6" stop-color="#f6c1da"/><stop offset=".7" stop-color="#f7cde0"/><stop offset=".8" stop-color="#f8d1e2"/><stop offset="1" stop-color="#f8d1e2"/></linearGradient><linearGradient id="_規グラデーションスウォッチ_1-2" x1="41.5" y1="122.8" x2="16.3" y2="157.9" xlink:href="#_規グラデーションスウォッチ_1"/><linearGradient id="_規グラデーションスウォッチ_1-3" x1="50.6" y1="111.9" x2="90.7" y2="111.9" xlink:href="#_規グラデーションスウォッチ_1"/><linearGradient id="_規グラデーションスウォッチ_1-4" x1="50.3" y1="124.8" x2="74.9" y2="157.6" xlink:href="#_規グラデーションスウォッチ_1"/></defs><g id="information"><g><g><path class="cls-13" d="M53.9,196c.2,0,0,.4,0,.5-.2,0-.2-.3,0-.5Z"/><path class="cls-13" d="M54,196.6c.2,0,.2,.1,.2,.3,0,0,0,0,0,0-.2,0-.2-.3,0-.3Z"/><path class="cls-13" d="M53.8,197.7c0,0,0,0,.2,0,0,.1-.1,.2-.2,.3-.1,0,0-.2,0-.3Z"/><path class="cls-13" d="M72.7,197.5c0,0,0,.1,0,.2,0,0,0,0-.2,0,0-.1,.1-.1,.2-.2Z"/><path class="cls-13" d="M53.5,198.4c0,0,0,0,.2,0,0,0,0,.1,0,.2-.1,0-.2-.1-.1-.2Z"/><path class="cls-13" d="M54.4,198.3c.3,0,.2,.4,.4,.6-.2-.1-.4-.3-.4-.6Z"/><path class="cls-13" d="M54.8,199c0,0,0,0,.1,0,0,.2,.1,.3,.2,.4-.3,0-.2-.3-.3-.4Z"/><path class="cls-13" d="M71.5,199.7c0,.2-.2,0-.3,0,0-.2,.2-.2,.3,0Z"/><path class="cls-13" d="M69.3,201.8c0,.1-.3,.2-.3,0,0,0,.2,0,.3,0Z"/><path class="cls-13" d="M65.1,206.4c.1,.2-.2,.3,0,.6-.5,.2-.4,.6-.7,.9-.1,0-.2,0-.3,0,.2-.6,.6-1.2,1.1-1.3Z"/><path class="cls-13" d="M46.6,207.7s0,.1,0,.2c-.2,.1-.3,.4-.7,.3,.2-.2,.4-.5,.7-.5Z"/><path class="cls-13" d="M45.8,208.1c0,.2-.5,.2-.6,.1,.1-.1,.4-.1,.6-.1Z"/><path class="cls-13" d="M63.4,207.8s.1,0,.2,0c0,.2,0,.2,0,.3-.2,0,0-.1,0-.2Z"/><path class="cls-13" d="M64.2,207.9c0,.3-.2,.4-.5,.5,0-.3,.3-.7,.5-.5Z"/><path class="cls-13" d="M63.3,208.2c.2,0,0,.1,0,.2-.1,0-.2,0-.3,0,0-.1,.2,0,.2-.2Z"/><path class="cls-13" d="M63.8,208.4c.2,.7-.6,1-.8,1.6-.1,0-.2,0-.3,0,.4-.5,.5-1.3,1.1-1.6Z"/><path class="cls-13" d="M65.3,208.4c0,0,.1,0,.2,0,0,.2-.1,.1-.1,.3-.1,0,0-.2,0-.2Z"/><path class="cls-13" d="M63,208.9c0,.3-.2,.1-.4,.2,.1,0,.2-.1,.4-.2Z"/><path class="cls-13" d="M62.6,209.4c0,.2-.1,.3-.2,.2,0-.1,0-.2,.2-.2Z"/><path class="cls-13" d="M64.7,209.8c0,.1-.1,.3-.3,.3,0-.2,.1-.3,.3-.3Z"/><path class="cls-13" d="M62.7,210.5c0,.2-.3,.3-.3,0,0,0,.2,0,.3,0Z"/><path class="cls-13" d="M64,211c-.1,.2-.2,.5-.4,.6,.1-.2,.1-.6,.4-.6Z"/><path class="cls-13" d="M68.9,211.4c-.3,.2,.2,0,.2,.3-.2,0-.3,0-.4,0-.2,0,0,.4-.4,.4,0-.4,.3-.7,.6-.6Z"/><path class="cls-13" d="M63.3,212c.2,.2-.3,.7-.4,.9,0-.3,.3-.6,.4-.9Z"/><path class="cls-13" d="M62.7,213.1c.3,0-.1,.3-.1,.5-.2-.2,.2-.3,.1-.5Z"/><path class="cls-13" d="M66.3,213.1c0,.1,0,.2-.2,.2,0-.1,0-.2,.2-.2Z"/><path class="cls-13" d="M31.5,220.4c0,0-.2,0-.4,0,0-.4,.4-.3,.4,0Z"/><path class="cls-13" d="M31.1,220.5c0,0,.2,0,.3,0-.2,.2,0,.2,0,.3-.1,0-.2,0-.1,.1-.2-.2,0-.4-.2-.5Z"/><path class="cls-13" d="M31.2,221.6c.1,0,0,.2,0,.3,0-.1-.2,0-.2-.3,0,0,.1,0,.2,0Z"/><path class="cls-13" d="M38.5,223.2c-.2,0-.2,0-.4,0,0-.2,.4-.2,.4,0Z"/><path class="cls-13" d="M38.1,223.2s0,0-.1,0c0,0,0,0,0,.2,0,0-.2,0-.2-.1,0,0,.3-.2,.3,0Z"/><path class="cls-13" d="M30.7,224.7c0,0,0,0,.2,0,0,.1,0,.2,0,.3-.2,0,0,0,0-.3Z"/><path class="cls-13" d="M27.8,230.4c0,.2-.1,.2-.2,.2,0-.2,.1-.2,.2-.2Z"/><path class="cls-13" d="M30.1,230.5c0,.2-.2,0-.2,.2-.2,0,.1-.2,.2-.2Z"/><path class="cls-13" d="M27.2,231s0,0,0,.2c0,0-.2,0-.3,0,0-.2,.2-.2,.3-.2Z"/><path class="cls-13" d="M26.2,231.1c0,.2-.1,.2-.1,.4-.2,0,0-.4,.1-.4Z"/><path class="cls-13" d="M54.8,231c-.2,0-.2,0-.3,0,0-.2,.3-.1,.3,0Z"/><path class="cls-13" d="M90.2,231c0,0,.1,0,.2,0,0,.2-.2,.2-.2,0Z"/><path class="cls-13" d="M92.6,230.9c0,.3,0,.4-.3,.4,0-.1,0-.4,.3-.4Z"/><path class="cls-13" d="M72.6,232.5c0,0,.1,0,.2,0,0,.1,0,.2-.2,.2,0,0,0-.1,0-.2Z"/><path class="cls-13" d="M70.8,232.9c-.2,.3-.7,.6-1.2,.5,.2-.5,.7-.5,1.2-.5Z"/><path class="cls-13" d="M69.2,233.1c0,.2-.3,.4-.7,.4,0-.3,.4-.3,.7-.4Z"/><path class="cls-13" d="M74.5,232.9c0,.1,0,.1,0,.3-.3,0-.2-.3,0-.3Z"/><path class="cls-13" d="M72.9,233.1c0,0-.4,.1-.5,0,0-.2,.5-.2,.5,0Z"/><path class="cls-13" d="M70.6,233.4c0,0,.1,0,.2,0,0,.1-.1,.2-.1,.3-.1,0,0-.2,0-.3Z"/><path class="cls-13" d="M72.3,233.4c.1,0,.2,0,.2,.2,0,0-.1,0-.2,0,0-.1,0-.2,0-.3Z"/><path class="cls-13" d="M72,233.5c0,.1-.2,.2-.2,.4,0,0-.2-.2-.3,0-.1-.3,.2-.3,.4-.4Z"/><path class="cls-13" d="M70.3,233.7c-.2,.2-.1,.3,0,.5-.1,.1-.3,0-.3-.1-.5,.5-1.1,1.2-1.9,.9,0-.2,0-.2,.1-.3-.2,0-.3,.2-.4,.2-.1,0,0-.2,0-.3,.4-.2,1-.3,1.1-.7,.4,.3,1-.5,1.4-.3Z"/><path class="cls-13" d="M67.5,234.8c.2,0-.1,.3-.3,.3,0-.2,.3-.2,.3-.3Z"/><path class="cls-13" d="M66.5,235c0,.1-.1,.1-.2,.1,0-.2,.2-.2,.2-.1Z"/><path class="cls-13" d="M67,235.1c-.1,.3-.4,.4-.8,.4,.2-.2,.4-.4,.8-.4Z"/><path class="cls-13" d="M19.2,237.2c0,.5-.8,.5-.8,.9-.7,.5-1.5,.9-2.2,1.4-.5,.3-.9,.8-1.6,.8,.1-.4,.6-.4,.9-.6,.3-.2,.4-.4,.8-.5,.2-.2,.6-.3,.7-.6,.4-.2,.7-.4,1-.7,.3,0,.2-.2,.4-.2,0-.2,.5-.4,.8-.5Z"/><path class="cls-13" d="M66.9,235.5c.2,0,0,.3,0,.5-.1,0-.3,0-.4,0,0-.2,.3-.2,.4-.4Z"/><path class="cls-13" d="M65.4,235.7c-.3,.2-.4,.5-.9,.5,0,0,0,0,0,.2-.3,0-.4,.1-.8,0,.6-.3,1.1-.6,1.7-.8Z"/><path class="cls-13" d="M67.7,242.1c-.7,0-.6-1-.9-1.4-.2-.3-.5-.5-.5-.9,.2-.2,.4,0,.5,0,.3,.8,.9,1.4,.9,2.3Z"/><path class="cls-13" d="M49.6,240.5c0,.3-.4,.6-.7,.4,0-.1,.1-.2,.2-.2,0-.1-.2,0-.2-.1,.2,0,.3-.1,.7,0Z"/><path class="cls-13" d="M37.6,242c.1-.2,.5,.3,.2,.3-.1,0,0-.4-.2-.3Z"/><path class="cls-13" d="M42.5,241.8c0,0,.2,0,.3,0,.1,.3,.5,.6,.2,.9-.3-.1-.6-.5-.5-.9Z"/><path class="cls-13" d="M62.7,241.2c0,.1-.2,.4-.5,.4,0-.3,.3-.2,.5-.4Z"/><path class="cls-13" d="M42,242.2c0,0,0,0,.2,0,0,.1,0,.1,0,.3,0,0-.1-.1-.1-.2Z"/><path class="cls-13" d="M60.3,241.7c0,.2-.4,.3-.5,.2,.1-.1,.3-.2,.5-.2Z"/><path class="cls-13" d="M37.4,242.8c-.1,0-.2,0-.2-.1,0,0,.2,0,.2,.1Z"/><path class="cls-13" d="M38.2,242.6c.2,0,.2,0,.2,.2-.1,0-.2,0-.2-.2Z"/><path class="cls-13" d="M63.6,241.8c.5,.1,.9,.6,.9,1.1-.5-.2-.7-.6-.9-1.1Z"/><path class="cls-13" d="M61.3,242.2c.2-.2,.4,.2,.3,.3-.2,0-.1-.3-.3-.3Z"/><path class="cls-13" d="M38.2,244.2c-.2,0-.3,.1-.5,.1-.2-.1-.3-.4-.5-.6,0,0,.2-.2,.3-.2-.1-.1,0-.2,0-.4,.6-.3,.9,.4,.8,1Z"/><path class="cls-13" d="M39.1,243s0,0,.2,0c0,.2-.1,.2-.2,.1,0,0,0,0,0-.2Z"/><path class="cls-13" d="M39.5,243.4c0,.1-.1,.2-.2,.2-.2-.2,.1-.3,.2-.2Z"/><path class="cls-13" d="M63,242.9c0,.1-.2,0-.3,0,0-.2,.2-.2,.3,0Z"/><path class="cls-13" d="M40.3,243.8c0,.2-.2,.3,.1,.2,0,.2,0,.2-.2,.2,0-.1-.1-.2-.3-.2,0-.2,.2-.3,.3-.2Z"/><path class="cls-13" d="M68.1,242.7c0,0,.1,0,.2,0,0,.1,.1,.3,0,.3-.2,0-.3-.2-.2-.3Z"/><path class="cls-13" d="M64.6,243.1c.1,0,.2,0,.3,.1,0,.1-.1,.1-.1,.2-.1,0-.2-.2-.2-.3Z"/><path class="cls-13" d="M66.1,243.1c.1,0,.2,.2,.1,.3-.2,0-.2-.2-.1-.3Z"/><path class="cls-13" d="M64.8,243.7c-.2,0-.2,0-.3,0,0-.2,.4-.1,.3,0Z"/><path class="cls-13" d="M63.3,245.7c-.6-.3-.7-1.2-1-1.8,0,0,0,0,0-.2,0,0,.2,0,.3,0,.4,.5,.7,1.4,.6,2Z"/><path class="cls-13" d="M63.2,243.7c.2,.2,.3,.3,.4,.6,0,0-.2,0-.3,0,.1-.2-.2-.3,0-.5Z"/><path class="cls-13" d="M38.9,244.7c0,0,.1,0,.2,0,0,.1,0,.3,0,.4,0-.1-.2-.2-.2-.3Z"/><path class="cls-13" d="M66.4,243.8c0,.2,0,.2-.2,.2,0,0,0-.1,0-.2,.2,0,0,0,.3,0Z"/><path class="cls-13" d="M64.5,244.1c.1,0,0,.2,0,.3,0,0-.1,0-.2,0-.1-.1,0-.2,0-.3Z"/><path class="cls-13" d="M66.3,244.1c.1,0,.2,0,.3,.1,0,.2,.1,.4,.1,.6-.2,0-.1,0-.3,0,0-.4,0-.4,0-.8Z"/><path class="cls-13" d="M39,245.2c.1,0,.2,0,.3,.2,0,0-.1,0-.3,0,0,0,0-.1,0-.2Z"/><path class="cls-13" d="M64.5,244.6c0,0,.2,0,.2,.2-.1,0-.2,.2-.3,0,0-.1,0-.2,.1-.3Z"/><path class="cls-13" d="M38.3,245.8c.2,0,.1,.3,.2,.4-.3,0-.3-.2-.2-.4Z"/><path class="cls-13" d="M63.7,245.1s0,0,.1,0c.3,0,.5,.6,.3,.9-.4,0-.4-.7-.4-.9Z"/><path class="cls-13" d="M37.3,246.5c.1-.1,.3,0,.4,0,0,.2-.2,.1-.4,0Z"/><path class="cls-13" d="M28.5,246.9c.1,0,.2,0,.2,.2,0,0-.1,0-.2,0,0,0,0-.1,0-.2Z"/><path class="cls-13" d="M39.4,246.5c0,0,.1,0,.2,0,0,.2-.2,0,0,.2,0,0,0-.1-.1-.2Z"/><path class="cls-13" d="M63.3,245.9c.2,0,.3,0,.3,.3-.2,0-.3,0-.3-.3Z"/><path class="cls-13" d="M63.9,246.1c0,0,.2,0,.3,0,.2,.2,.2,.6,0,1-.4-.2-.2-.4-.3-.9Z"/><path class="cls-13" d="M39.8,247.2c0,0-.1,0,0,.3,0,0-.1,0-.1-.2,0,0,.1,0,.2,0Z"/><path class="cls-13" d="M27.7,248.5c-.2,.1,0,.4,0,.6-.2,0-.5-.7,0-.6Z"/><path class="cls-13" d="M28,248.5c.2-.2,.2,.2,.2,.3-.2,0,0-.3-.2-.3Z"/><path class="cls-13" d="M64.2,247.3c0,0,0,0,.2,0,0,.1,0,.2-.2,.2,0,0,0-.1,0-.2Z"/><path class="cls-13" d="M26.6,249.3c0,0,.1,0,.1,.2,0,0-.1,0-.2,0,0-.1,0-.1,0-.2Z"/><path class="cls-13" d="M26.7,249.6c.2,0,.3,.3,.2,.4-.2,0-.1-.3-.2-.4Z"/><path class="cls-13" d="M27.8,249.5c.3,.3,.2,.9,.3,1.3-.4-.2-.3-.8-.3-1.3Z"/><path class="cls-13" d="M70.2,248c.1,0,.1,.2,0,.3-.2,0-.2-.1-.2-.2,0,0,0,0,0,0Z"/><path class="cls-13" d="M41.9,249.5c-.1,0-.2,0-.3,0,0-.2,.3-.1,.3,0Z"/><path class="cls-13" d="M26.8,250.1c.2,0,0,.2,0,.3,0-.2,0-.2,0-.3Z"/><path class="cls-13" d="M54.8,249.5c0,.1,0,.3-.2,.3,0-.2,0-.3,.2-.3Z"/><path class="cls-13" d="M28.2,251.1c0,.1,0,.4,0,.6,0,0,0,0-.2,0,0,0,.2-.3,0-.3,0-.1,0-.2,.2-.2Z"/><path class="cls-13" d="M26.9,251.4c.5,.2,.5,1,.4,1.5,.1,.2,.2,.5,0,.7-.3-.4-.3-1.5-.5-2.2Z"/><path class="cls-13" d="M64.6,250.3c.3,0,.2,.4,0,.4,0-.1,0-.3,0-.4Z"/><path class="cls-13" d="M65.8,251.1c0,.2-.1,.2-.1,.4-.3,0-.1-.4,.1-.4Z"/><path class="cls-13" d="M63.4,255.4c-.2,.5-.4,.9-.8,1.1-.2-.5,.3-1.1,.8-1.1Z"/><path class="cls-13" d="M58,257.3c0,0,0,.1,0,.2,0,0-.2,0-.3,0,0-.2,.2-.2,.3-.2Z"/><path class="cls-13" d="M61.6,258.2c-.1,.3-.4,.5-.6,.8-.2,0-.1-.1-.2-.3,.3-.1,.4-.6,.8-.4Z"/><path class="cls-13" d="M61.7,258.6c.1,0,.1,0,.2,0,0,0,0,.2-.2,.2,0,0,0-.1,0-.2Z"/><path class="cls-13" d="M60.4,259.3c.2,0,.2,.1,.2,.2-.2,.1-.4,.2-.7,.1,0-.3,.4-.2,.5-.4Z"/><path class="cls-13" d="M69,260c0,0,0,.1,0,.2-.1,0-.1,0-.2,0,0,0,0-.1,.2-.1Z"/><path class="cls-13" d="M65.6,263.2c0,.2-.2,.2-.3,.2,0-.1,.2-.3,.3-.2Z"/><path class="cls-13" d="M61.7,270.3c.2,0,.2,.4,.1,.5-.3,0,0-.3-.1-.5Z"/><path class="cls-13" d="M68.9,202.3c0,0-.1,.2-.3,.2,.2,.1-.1,.2-.3,.2,.1,0,.2,.2,.3,.2-.2,.2,.2,.5-.1,.6,.1,.2,.2-.2,.5-.1,0,.1-.2,.2-.4,.3,0,0,0,.1,.2,.1,.2-.2,.4-.4,.5-.6,0-.1-.2,0-.2-.1,0,0,0,0,.2,0,.2-.5,.8-.6,.7-1.1,0,0,.1,0,.2,0,0,0,0-.1,0-.2,.4-.1,.6-.4,.8-.8,.3-.3,.7-.5,.8-1.1,.3,0,.3-.3,.6-.4,0-.3-.3-.2-.5-.2,0-.3,.4-.1,.6,0,0-.2-.1-.2-.3-.1,.1-.3,.4-.4,.6-.6-.2-.5,.4-.8,.7-1,0-.2-.3,0-.4,0,.4-.5,.9-.9,1.3-1.5,.5,0,.5-.8,.5-1.1,.4-.3,.5-.9,.9-1.2,.1,.6,.5,1.1,.8,1.5,.2-.2,.2-.4,.2-.8,.4,0,.3,.6,.6,.7,.2,0-.1-.6,.2-.6,.2,0,.2,.2,.2,.3,0,0-.1,0-.2,0,.2,.2,.4,.1,.6,.4,.5,0,.7-.3,1-.6-.2-.2,0-.3,0-.6,.2,.1,.2,.1,.4,0,.3,.5,.4,1.2,.8,1.6,0,.2,0,.4,0,.6,.2,.4,.4,.4,.6,.8,0,.2,.3,.3,.1,.7,0,0-.1,0-.1,.2,0,.1,.1,.4,0,.5,.1,.3,0,.8,.3,1.1,0,.3,0,.5-.1,.6,.2,0,.2,.3,.3,.5,0,.2,.1,.1,.2,.4,0,.4,.1,1.7,0,2.1,0,.1-.2,.2-.2,.3,0,.1,0,.2,0,.3,0,.4-.4,.9-.8,1.1,0,.6-.6,.7-.8,1.1-.4-.2-.6,.3-1,.3,0,0,0,0,.1,0-.4,.2-.6,.1-.8,.5-.1,0-.4,0-.4,.2-.5,.2-1,.5-1.7,.8,0,0,0,0,.2,0-.3,0-.6,0-1,0-.1,0,0,.3-.3,.2,0,.2,0,.2,.3,.2,0,.4-.4,0-.6,0-.1,0,0,.1,0,.3-.3,0-.5,.2-.8,.2-.1,0,.1,0,0,.2-.2,0-.2,0-.3,0-.1,.1,0,0,0,.2-.3,.3-.6,.6-1,.7,0,0,0,0,0-.2-.3,0-.4,.2-.7,.3,0,0,0,0,.1,0-.3,.3-.8,.5-1.3,.6,0,0,0,.1,0,.2-.2,0-.2-.1-.4-.2,0,0,0,0-.1,0,0,0,.3,.1,0,.1,0,.1,.2,.1,.2,.3-.2,0-.2,.2-.4,0,0,.2-.4,.4-.6,.3,0-.3,.2-.6,.3-.8-.2-.1-.7-.1-.7,.2-.2,0-.6,.3-.7,.7-.2-.2-.2,.2-.4,.2,0,0,.1,0,.2,0,0,.1,0,.3-.2,.3-.1,0,0,0-.1-.1-.2,.1-.5,.4-.7,.2,0,0,0,.1-.1,.1,0,0,.2,0,.4,0,0,.2-.1,.3-.3,.3,0-.1,0-.1,0-.3,0,.2-.3,.3-.3,.5,0,.1,.1,0,.3,0,0,.2-.1,.4-.4,.4,0-.1,0-.2,0-.3-.6,.3-.8,1.2-1.4,1.3,0-.2,.2-.2,.2-.4,0,0,0-.1,0-.2-.4,0-.5-.4-1-.2-.1,.1-.2,.3-.4,.5,0-1,.8-1.8,1.2-2.8,.3-.2,.3-.7,.6-.9,0,0,0-.1,0-.2,0,0,.1,0,.2,0,0,0,0-.1,0-.2,.7-.7,1-1.6,1.6-2.4,0,0,0,0-.1,0,.4-.1,.5-.6,.7-.9,0-.1-.3-.1-.4-.2,0,0,0,0,0,.1,0,0,.1,0,.2,0-.3,0-.4,.4-.7,.5,0-.2,.1-.3,.2-.4,0,0,0-.1-.2-.1-.1,.5-.9,.1-1.4,0,0-.5-.7-.5-.7-1-.5,.3-.8,0-1-.4-.3,0-.4-.2-.7,0,0-.2-.3-.2-.5-.3-.1-.4,.2-.9-.3-1.1,.3-.3,0-.9,.1-1.1-.2-.1-.2-.4-.4-.5,0,0,0,0,.1,0,0-.1-.2,0-.3,0,0-.2-.1-.4-.1-.6,0-.3,.3-.7,0-1,0,0,.2,0,.2-.2,0-.2,0-.2-.1-.3,.2-.9,0-1.6,0-2.4,.2-1.7,1.2-2.8,1.3-4.7,.1-.1,.2-.3,.3-.6,.2,0,.2,.3,.3,.4,.6,0,.7,.7,1,1.1,.2,0,0-.2,.1-.3,0-.1-.2,0-.2-.1,.2-.1,.4-.4,.7-.5,.4,.1,.5,.4,.9,.5,0,.1,0,.2,0,.3,.6-.1,.9-.5,.8-1.2,.2-.2,.6-.4,.9-.2,.3,.6,.3,1.1,.6,1.5,0,.5,0,1.1,.3,1.3-.5,.8,.4,1.7-.2,2.4,.2,.4,0,.9-.2,1.3,.1,.4,.1,.9,.2,1.3,.2,0,0-.3,.2-.1-.2,.1-.3,.3-.4,.5,.3,.4-.3,1,0,1.5-.1,.2-.2,.3-.2,.6,.1,0,.4-.3,.5,0-.2,0-.2,0-.3,.1,0,.2,0,.3,0,.4,.2,.1,.3-.4,.5-.2Zm0,1.6c.1,0,.2,0,.2-.1,0,0-.2-.1-.3,0,0,0,0,0,0,0Zm-.7,1.1c0,0,.1-.2,.1-.3,0,0,0,0-.2,0,0,.1-.1,.2,0,.2Zm3.7,4.4c0,0,.4,0,.5,0-.2,0-.3-.2-.5,0Zm-2.9,.7c.2,0,.2,0,.4,0,0-.2,.2-.4,.3-.5-.3,0-.4,.3-.6,.5Zm0,.3c.1,0,.2-.1,.2-.2-.2,0-.2,0-.3,0,0,.1,0,.1,0,.3Z"/><path class="cls-13" d="M30.8,216.9c.2,.1-.3,.4-.2,.7-.5,0-.4,.7-.8,.8,0,.2,.3,0,.2,.2-.4,.1-.9,.5-.8,1-.1,0-.2,0-.2,.1,.1,.2-.1,.2-.2,.4-.2,.3,0,.5-.1,.8-.1,.7-.6,1.1-.9,1.7-.8,.8-2.2,.6-3.3,1.2-.4-.1-.7-.1-1.3,0,0,0,0,0,0-.2-.1,0-.4,.1-.4,0-.7,.4-1.2-.7-2-.5-.6-.7-1.3-1.2-2.2-1.5,0-.1-.1-.1-.1-.3-.6,0-.4-.7-1-.7,.1-.1,0-.2-.1-.3-.9-.3-.8-1.9-1.5-2.4,.2-.4-.3-.9-.4-1.2,0-.4,.2-.8-.2-.9,0-.3,0-.7-.2-.9,0-.9,.2-1.4,.6-2.1,0,0,0-.1-.2,0,.2-.5,.7-.6,.8-1.2,.4-.2,.9-.4,1.1-.7,.7-.4,1.6-.3,1.9-1,.3,0,.5-.1,.8-.2,.3-.9,1.5-.5,.9,.3,.4,0,.8-.4,1.2-.5,.7,.1,1.1-.3,1.5-.7,1.7-.5,2.7-1.6,4.1-2.4,0,0,.2-.1,.2-.3,.3-.1,1.3-.5,1.1-.7,.5,0,.8-.7,1.4-.8,.1,0,.1-.2,.2-.3,.8,0,1.3-.9,1-1.7,.2-.3,0-.7,.3-1,0,0,0-.1-.2,0,.1,0,0-.3,.1-.4,0-.1-.2,0-.3,0,.2,0,.2-.4,.3-.5-.1,0-.2-.2-.4-.1,0,0,0,0,.1,0,.2-.2,.2-.4,.2-.8,.3-.3,.8-.5,.7-.8,0-.2-.2,0,0,0,.2-.3,.2-.8,.8-.9,.1,0,.4,.2,.5,0,0,0,0,0-.1,0,.1-.1,.3-.2,.4-.3,.1,0,.2,0,.3,0,.4-.2,.8-.4,1.1-.7,0-.5,.2-.7,.4-1,1-.2,1.7,.2,2.1,.8,.3,0,.4,0,.5,.3,0,0,.2,0,.3,0,.4,.4,.8,.8,1.4,1,.2,.4,.6,.7,1.1,.9,0,0,0,.1,0,.1,0,0,.4,.3,.6,.4,0,0,.2,0,.2,0,.2,.2,.4,.4,.7,.5,.3,.2,.8,.2,1.1,.2,.3,0,.6,.3,.9,.3,0,0,0,.1,0,.2,.5,.1,1,.5,1.5,.6,.1,0,.3,0,.5,0,.3,0,.4,.4,.7,.6,.4,.3,.9,.3,1.1,.7,.3,0,.3,.3,.6,.3,0,.8,1.7,1.3,.9,2.2,.1,.6,0,1.3-.7,1.3,0,.4-.1,.5,0,.9-.3,0-.6,.3-1,.5-.6,.1-1.3-.2-1.6,.2-.3,0-.3,0-.6,0,0,0,0,0,0,.1-.1-.1-.4,0-.3,.3-.4,0-1,.4-1.6,.3-.2,.2-1.1,0-1.6-.1,0,0,0,.2-.1,.3-.4,0-.5-.1-.8-.2-.8,.5-1.8,.5-2.6,.8,0,.2,.3,0,.3,.2-.5,0-.7,.2-1,.2,0,.2,.1,0,.1,.2-.2,0-.4,.2-.5,0,0,.2,0,.3-.2,.6,0,0,0-.2,.2-.2,0,0,0,.1,0,.3-.2,0-.2,0-.4,0-.1,.4,.3,.2,.3,.4,0,0-.2,0-.2,.1,0,.1,0,.2,.1,.2-.3,.6,.1,1.4,0,1.7,.2,1-.1,2.1,.1,3.3-.2,1-.1,1.8-.2,3,0,.3-.1,.6,0,.8,0,0,.1,0,.1,0,0,.1-.4,.5,0,.7-.2,.3-.4,1-.2,1.3,0,.4-.1,1.2,.4,1.2-.1,.1-.3-.1-.5-.1-.1,0,0,.2-.1,.2,.1,.9,1.1,.2,1.6,.6,.6-.3,.8-1,1-1.5,.8-.5,1.2-1.4,1.6-2.2,.7-.3,.8-1.1,1.5-1.3-.2,.8,0,1.7-.7,1.9,.1,.2,0,.3,.2,.4,0,.6,0,1.2,0,1.8,.4,.4,.6,.9,1,1.1,0,.2,0,.7,.3,.7-.3,.3,.4,.9,.1,1.2,0,.2,.4,.2,.5,0,0,.2-.3,0-.4,.1,0,.2,.3,.1,.3,.3,0,.2,0,.3-.1,.4,0,.1,.3,0,.2,.2-.1,0,0,.2-.2,.3,.1,0,.2,.4,.3,.2,.2,0,0,.1,0,.2,0,.1,.1,.1,.3,0,0,0-.2,0-.2,.1,0,.2,.1,0,.3,0,0,.2,0,.4,.2,.4,0,.1-.1,.1-.1,.2,.6,.8,.5,2,1.2,2.7,0,0-.1,.1,0,.3,.2,.3,.2,1,.2,1.5-.7,.7-1.4,2.1-2.9,1.5,0,0,0,0,0,0,0,0,0,.3-.1,.4-.4,0-.8,.1-1,0-.3,0-.4,0-.7,0-.9,.4-1.2-.7-1.8-.9-.9,0-.8-1-1.3-1.4-.1-.5-.3-1-.4-1.6,0-.3,0-.6,0-.9,0-.4-.3-.7-.4-1-.1-.4,0-.8-.3-.9,0-.1,.1,0,.2,0-.1-.1-.2-.2,0-.3-.3,0-.2,.2-.3,.5-.1,.5-.4,.6-.2,.9-.2,.2-.2,.7-.2,1,0,0,0,.1-.1,.2,0,.1,0,.2,0,.3,0,.2,0,.2-.1,.3,0,.5,0,1,0,1.5-.3,2.9-.1,6.1-.2,9,0,.8,.1,1.6,.2,2.4,0,.1,.2,0,.3,0,0,0-.2,0-.2,.2,0,.1,0,.2,0,.4,.2,0,.2,0,.4,0,0,.2-.3,0-.3,.4,.2,.1,.2-.2,.3,0,0,.1,.1,.2,0,.3,0,0-.2,0-.2,0-.2,0,0,.1,0,.3,0,0,0,0-.2,0,0,0,.1,.4,.2,.2,.1,0,0,.2-.1,.2,0,.2,.4,.3,.3,.3,0,.2-.2,0-.3,.1,.1,.2,.4,.1,.6,.3,0,.2-.2,0-.3,0,0,.3,.2,.2,.2,.4-.2,0-.2,.2-.3,.2,.2,0,.2,.3,.1,.4,.1,.3,.3,.2,.7,.2-.2,0-.3,0-.1,.3,0,0-.2-.1-.3-.1-.1,.2-.3,.1-.3,.3,0,.1,.2,0,.2,.1,.1,0,.1-.1,.3-.1,0,.1-.1,.2-.1,.3,.2,0,.2-.2,.3,0,0,.2-.5,.2-.7,.2,0,.1,.2,.2,.2,.4-.3,0-.4,1.1-.3,1.4,0,.6,.2,1.3,.6,1.5,0,.7,.6,1.5,0,1.9,.2,.6-.3,.9-.5,1.3,0,.1,0,.3,0,.4,0,.4-.3,.7-.2,1.2-.2,.4-.5,.6-.5,1.1-.3,0-.4,.6-.3,.9-.4,1.1-.2,2.2,.3,3-.1,0-.4,.5,0,.5,0,0-.2,.4,0,.5,0,.1-.3,.1-.3,.3,0,0,0,.3,.1,.3-.3,.4-.6,1.4-.6,2-.5,.3-1,.9-1,1.5,0,.6-.4,1.1-.5,1.6,0,0,0,.2,.1,.2-.2,.9-1.5,1.3-2.3,.7,0,.2-.5,.2-.6,.3-.7-.4-2.1,0-2.6-.8-.2,0-.6,.2-.8,0,0-.3,0-.5,0-.8-.9-.2-.6-.7-.6-1.5,0-.3-.2-.7-.2-.9,0-.6,.4-.9,.6-1.3-.2-.5-.3-1.1-.5-1.6,.2-1.2,.4-2.2,.6-3.6,.3-.5,.3-1.2,0-1.8,.1,0,.1,0,.2,0,.2-1.1-.1-2.1-.2-3.1,.2,0,.2,0,.3,0,0,.3,.1,.6,.2,1,.2-.3,.4-.8,.2-1.2,.5-.7,0-1.3,.1-2,.3,0,0,.4,.3,.5,.4-.1,.2-.4,.4-.8-.2-.2-.1-.5,0-.6-.2-.5,.2-.5,.5-.9,.1-.2,.1-.4,.2-.5,0,0,.2,0,.2-.1,0-.1,0-.5,0-.6,0-.2-.2,0,0,0,0-.2-.1-.4-.1-.7,.2-.1,.2,.1,.4,0,0-.2-.4,0-.4-.1,0-.2,.3,0,.4,0,0-.1,0-.4-.2-.4,0-.1,.1-.1,.2-.2,0-.1-.2,0-.4,0,0-.1,.3,0,.3-.2,0-.1-.2-.2-.3-.2,0-.2,0,0,.2,0-.2-.3-.6,0-.6-.3,.2-.1,.2,0,.3,0,.2,0,.2-.2,.4-.3,0,0,0-.2-.2-.2,0-.5,.3-.9,.2-1.3,0,0,.1,0,.2,0,0,0-.2-.1-.3-.1,0-.1,.2,0,.3,0-.1,0-.2-.2,0-.2-.1-.3,.1-.7-.3-.7,.3-.2,.4-1,.2-1.2,0-.4,.1-1-.1-1.5,0-.1,0-.1,.1,0,0-.1-.1-.2-.2-.3,.1,0,0-.1,.1-.2-.2-.7,0-1.3,0-2.2,.2-.7,0-1.8,.2-2.3,0-.2-.2-.3,0-.5,0-.1,0-.2-.2-.1,0-.1,0,0,.2,0,0-.1,0-.2,0-.4-.3,0-.4,.3-.5,.5-2.3,2-4.4,4.2-7.1,5.9,0,0,0,0,0,0-.1,0-.5,.1-.5,.4-.2,0-.1,0-.3,0-.5,.4-1.4,.8-2.3,1-.8,.1-1.1-.4-1.6-.5,0-.1-.1-.2-.1-.3-.8-.1-1.8-.3-2.5-.7,.2-.3,0-.5,0-.8,.7-.1,1.2-.7,1.8-.6,.2-.1,.2-.4,.5-.4,0,0-.1,0-.1,0,.8-.9,1.9-1.4,2.6-2.3,.3,0,.3-.3,.6-.3,0-.1,0-.2,0-.3,.3,0,.4-.1,.4-.3-.7,0-1.1,.8-1.8,1,0-.1,0-.1,0-.3,.1,0,.2-.1,.3-.1,.3-.6,1-.8,1.3-1.3,0,0,0,0-.1,0,0-.1,.1,0,.3,0,.4-.4,1.1-.9,1.4-1.3,.1-.2,.5-.1,.4-.5,.3,0,.5-.2,.5-.5,.7-.3,.8-1.4,1.8-1.3,.2,0,0-.1,.2-.1,0,0,0,0,0,.1,.2,0,.2-.3,.4-.3,0,.1,0,.2-.1,.3,0,0,.2,0,.4,0,0,0-.2,0,0,.2,.4-.1,.4-.5,.7-.7,0,0,0,.2,0,.2,0,.1,.4,0,.4,.2,.2,0,.3-.2,.4,0,.2-.3,.6-.4,.8-.6,.3,.4,1.1,0,1.3,.1,0,0,.2,0,.1-.2,.8,.3,.6-.3,.7-.7,0-.1-.2,0-.2,0,.6-.4,0-.8,.5-1.3,0-.1,0-.2-.2-.2,0,0,.2,0,.2-.2,0-.2-.1-.6,0-.7,0,0,0,0-.2,0,0,0,.4-.5,0-.5,0-.1,.5-.6,0-.6,0-.1,.2,0,.2-.1,0-.4,0-.9,.2-1.3,0,0,0,0-.2,0,.3-.7,.4-1.5,.4-2.3,.2-.6,.3-1.3,.1-1.9,0,0,.1,0,.2,0,.2-.5,0-1.3,0-1.9,0-.4,.5-1.5,0-1.9,0,0,0,0,0,.1,0,0,0,0,0,0,0,0,.1,0,.3,0,.2-.6,0-1.4,.1-2.1-.7,.2-.7,1-1.2,1.5,0,0,.1,0,.1-.1Zm7.3,7.1c.1,.1,.2,0,.2-.2-.1,0-.2,0-.2,.2Z"/><path class="cls-13" d="M66.6,206.6c0,.2-.3,.2,0,.3-.5,.4-.6,1.1-1.1,1.4,.3-.7,.6-1.2,1.1-1.7Z"/><path class="cls-13" d="M65.3,208.7c-.2,.4-.3,.7-.7,.9,.2-.2,.3-.7,.7-.9Z"/><path class="cls-13" d="M64.4,210.1c0,.3-.2,.5-.5,.7,.2-.2,.2-.6,.5-.7Z"/><path class="cls-13" d="M61.5,222.7s0,0-.2,0c.3-.8,.8-1.4,1.6-1.7,.8,.3,0,1.7,0,2,.5,.2,.8-1,1.6-.5,.2-.3,.5,0,.9,0,.5,0,.8-.5,1.3,0-.1,.5-.1,.7-.2,1.1,.1,0,.2,0,.3,0,0,.4-.3,.3-.4,.3-.1,.9,.1,1.8-.7,1.9,0,.4,.4,.3,.5,.7,.1,.8-1,1.3-.8,1.9,0,.1,0,0-.2,0,0,.3-.4,.5,0,.8,0,.1-.2,.2-.2,.1,0,.2,.2,0,.2,.2,0,.2-.2,.1-.2,.2,.3,.2,0,.5,.2,.6,0,0,0,.2-.2,.2,0,.1,0,.2,.2,.1,0,0-.1,.1-.2,.2,0,0,.2,0,.2,.2,0,.2-.1,.1-.1,.3,0,0,0,.2,.2,.1,0,0,0,0-.1,0,0,.2,.2,.1,.3,.1-.1,0-.2,.2-.3,.3,0,0,0,.2,.2,.2-.2,.1-.1,.2,0,.4-.2,.2-.4,.7-.2,1,0,0-.2,0-.2,.1,0,.2,.1,.2,0,.3,.1,0,.3,0,.5,0,0,.2-.3,.2-.3,0-.2,0-.4,.4-.4,.5-.7,.4-1,1-1.7,1.4,0,.3-.6,.4-.3,.7,0,.1-.2,0-.2,.1,0,.2,0,.3,.2,.4,.3-.2,.7-.4,1.1-.5-.2,.3-.4,.5-.2,.8-.2,0-.2,0-.3,0,0-.2,.3-.2,0-.5-.5,0-.2,.8,0,1,.7,0,1.4-.8,2-.9,.9-.2,1.3-.5,2.2-.7,.3-.3,.9-.3,1-.7,1.3,0,1.8-.9,2.7-1.1,.4,0,.6,0,1-.1,.2,0,.2-.2,.3-.2,.5-.2,1-.2,1.4-.3,.4,0,.8-.4,1.2-.4,0,.1,0,.1-.1,.2,.1,.2,.5,0,.5-.2,.5,0,1.5-.3,2-.4-.2,0-.4,0-.6,0,0,0,0,0,.1,0-.3,0-1.4-.2-1.8,.3,0,0,0-.1,0-.2-.2,.2-.5,.3-.6,0,0-.1,.4-.2,.4,0,.2-.2,.4-.5,.6-.7,0,0,0,0-.1-.1-.1,.1-.3,.3-.5,.3,0,.1,0,.1,0,.2-.3,0-.5,.3-.8,.4,0,0,0-.1,0-.2-.4,.2-.9,.4-1.4,.4,0-.2,0-.3,0-.4,.7-.1,1-.6,1.8-.7,.4-.5,1.3-.5,1.9-.8,.1,0,.1,.2,0,.3,1.7-.6,3.9,0,5.7-.5,.3,.2,.7,.2,1.1,.1,.9-.1,1.9,.1,2.8,0,.3,0,.5,.1,.8,.2,.8,.1,1.8,0,2.3,.6,.5,0,.6,.2,1,.1,.4,.4,1.4,.7,1.7,0,.5,0,.8,0,1.1,.2,0,.4,.4,.5,.5,.8,.3,0,.8,.4,1.1,.2,.3,0,.3,0,.4-.2,1.2,0,1.7,.5,2.8,.6,.2,.2,.4,.4,.7,.5,.3,.4,.3,1,.8,1.1,.2,.8,1.2,1,1.3,1.8,0,.1,.1,.2,.2,.2,0,.4,0,.7,.2,1,0,.5-.3,1.3-.2,1.7-.3,.3-.4,.7-.6,1.1-.4,.2-.6,.7-.9,1.1-.8,.4-1.3,1-2.2,1.2-.5,0-.9,0-1.2-.3-.5,.1-1.3,.2-1.8,0-.3-.1-.5-.5-.8-.5-.4-.5-1-.9-1.8-1,0-.2,.1-.2,.2-.1-.2-.2-.6-.4-.8-.3-.4-.4-.9-.6-1.4-.8-.5-.4-.8-1-1.4-1.2-.3-.9-1.1-1.3-1.6-2-.2-.2-.5-.2-.7-.3,.7-.2,.7-.7,.4-1.1-.2-.2-.5-.2-1.1-.2-.9,0-1.9-.2-2.5-.2-.4,.2-1.2,.2-1.5,0-.2,.1-1,.3-1-.1,0-.1,.3-.1,.3-.3-.2,0-.3,0-.6,0,0,.2,0,.2,0,.4-.2,0-.1-.1,0-.3,0,0-.2,0-.4,0,0,.1,.3,0,.3,0,0,.3-.4,.3-.6,.1,0,0,.2,0,.1-.2,0,0,0,0-.2,0,0,0-.4,.3-.4,0-.5,.2-1.3,.7-2.1,.4,.1-.2,.4-.3,.5-.4-.2-.2-.9,0-1.1,.2-1.4-.4-2.5,.2-3.7,.6-.3,.3-.7,.4-1.1,.6-.2,.2-.4,.4-.7,.3,.1-.5,.8-.5,1-.9-1.1,.2-2.2,.8-3.5,1.2-.1,0,0,.2,0,.3-.6,0-1.4,.2-1.6,.7-.2,0-.2,0-.3,0-.2,.1-.3,.3-.5,.4,0,.3,.4,.4,.3,.7-.3,0-.5-.4-.7-.6-.1,0-.3,0-.4,0-.1,.1,.1,.1,0,.3-.2,0-.3,0-.3-.2-.2,.2-.5,.2-.7,.3,0,0,.2,.3,.3,.1,0,.2,0,.2,.2,.4-.2,.1-.2,0-.4,0-.1,0,0,0,0,.2,.7,.1,.6,1.1,1.3,1.2,0,.3,.2,.6,.3,.8,.5,0,.5-.2,1-.2,.3,.5,.8,1.2,.9,1.8,0,.1,.2,.2,.3,.2,.1-.2,0-.4,.2-.6,0,0,.1,0,.3,0,.5,.8,.9,1.7,.8,2.7,.2,.1,.4,.3,.6,.5-.1,.3,0,.5-.2,.7,.4,0,.5,.9-.1,.8,0,.3,0,.3,0,.6,0,.2,.2-.1,.3,0,0,.1-.2,0-.2,.3,.2,0,.7,0,.8,.2-.1,.1-.2,0-.3,0,0,.2-.1,.3-.2,.5,.1,.2,.3,.4,.6,.5,0,.6,.5,1.4,.2,2.1,.3,.3,.2,.5,0,.9,.2,.2,.2,.7,0,1,.4,.9-.1,1.3,0,2.6-.1,0-.2,.2-.3,.2,0,.1,0,.1,0,.3-.1,0-.1,0-.2,0,.4,.4-.3,.6,0,1.1-.4,.2-.6,.9-1.2,.8-.1,0-.1,.3-.1,.4,.3,0,.3-.2,.6-.2,0,0,.1,.2,.1,.4-.2,0,0,.1-.2,.2-.1,0-.6,.1-.8,.2-.1,0-.2,.1-.2,.1,0,0,0,.2,0,.2,0,.1,.2,0,.4,0-.1,0,0,.2,0,.3-.2,0-.3,0-.5,.1,0,0,.1,.2,0,.3,.2,.1,.4-.1,.5,0-.2,.5-.9,.5-1.2,.8,0,0,.2,0,.3,0-.2,.5-.7,.1-1.1,.2-.6,0-.8,.7-1.3,.8,0,.1,0,.3-.3,.3,0,.1,0,.1,0,.3,0,0-.1,0-.1,.2-.7,0-1.2,.2-1.8,.2-.5,0-.9-.3-1.4-.4,.2,0-.1,.2,0,.5,.6,.4,.2,1.7,.7,2,0,.1-.1,.2-.2,.3,.2,.2,.3,.5,.6,.7,0-.2,0-.7-.4-.7,0,0,.1,0,.2,0-.2-.4,0-.8,.4-.8,.1,.4,.3,.8,.5,1.1-.3,.1,0,.4-.1,.6,.2,.1,.3,.3,.5,.5-.2,.8,.5,1.7,0,2.1-.2,0-.4,0-.6-.1-.3,0-.3,.3-.4,.4-.5-.2-.9,.1-1.1,.4-.4,0-.3-.4-.7-.4-.1,0,0,.2,0,.2-.3,0-.9,.3-1.1-.2-.4,.3-1,.5-1.4,0-.2-.3,0-.7-.4-.8-.2-.5-.6-.9-.9-1.4,0,0,0-.1,0-.2,0,0-.3-.2-.4-.3-.2-.4-.3-.9-.8-1-.5-.9-1.2-1.6-1.8-2.1,0,0,0-.1,0-.2-.1,0-.3,0-.4,0,.1-.4-.3-.5-.6-.5,0,0,0,0,.1,0,0,0-.2,0-.2,0,.2,0-.6-.6-1-.6,.1-.3-.4-.5-.6-.5,0-.1-.1-.4-.4-.3,0-.1,0-.2,0-.3-.3-.2-.4-.5-.9-.6,0-.3-.3-.3-.6-.3-.1-.2-.2-.6-.5-.6,0-.4-.2-.6-.6-.7-.1-.4-.3-.6-.6-.7,0-.4-.4-.9-.9-1.1-.6-.9-.6-2-.9-3,.4-.7,0-1.9,.2-2.4,0,0,0-.2-.2-.1,.2-.2,.3-.5,0-.7,.3-.2,0-.8,.4-.8,0-.1-.2-.1-.4,0,.1-.2,.3-.1,.5-.3,0,0-.3,0-.3-.2,0,0,0,.1-.1,.1,0,0,0-.3-.1-.2,.1-.2,.4,0,.4-.3-.3-.1-.6-.2-1.1-.2-.1,.1-.2,.3-.4,.3,0-.1,0-.2,.2-.2,0-.2-.3,.1-.4,0,.2-.2,.7-.1,.8-.4-.2-.2-.3,.3-.5,.2,0-.2,.2,0,.2-.2,0-.2-.2-.2-.3-.2,0,0,0,.2,.2,.2,0,0-.1,.1-.2,.2-.4-.4-.7,.1-1.2-.2,0,0,0,0,0-.1-.2,0-.7,0-1.1,0-.4-.2-.7-.5-1.2-.6,0,0,0,0,0-.1,0-.1-.1,0-.2,0,0-.1,0-.2-.2-.3-.1,0-.3,0-.4,0,0,.3-.4,0-.7,0,.1-.1,.4,0,.6,0,0-.2-.4,0-.5-.3,.3,.1,.4-.1,.7,0,0-.2-.2-.2-.3-.3,0-.2,.1-.2,.2-.2,0-.1-.2,0-.4-.1,0,.2,.1,0,0,.3-.2,0-.3,0-.2-.2-.2,0-.4,0-.4-.2-.3,.2-.6,0-.9,0,0,0,0-.1,.1-.2,0,0-.1-.2-.3-.2,0,0,.2-.3,0-.3,0-.6,1.1-.4,1.2-.6-.2-.1-.5,0-.7-.2,.2-.2,.4-.5,.7-.7,0-.4,0-.7,0-1.3,.2,0,.3,0,.2-.4,.2,0,.4,0,.4-.3,.3,.4,1.3,.5,1.7,.2,0,0,0,.3,0,.3,0,.2,.4,0,.6,0-.1-.4-.3-.8-.3-1.2,.3,.2,.3,.9,.5,1.2,.5,0,.7-.2,1-.3,.2,0,0,0,.1,.1,.4,0,.8-.2,1.3-.1,.8-.2,1.3-.6,2.1-.8,.1,0,.1,.1,.2,.3,.4,0,.7,0,.8-.3,.8-.3,1.8-.5,2.3-1.1,0,0,0-.3,0-.2,.1,0,0-.3,.3-.3,0,0,0-.3,0-.3,.4-.2,.4-.9,.9-1.1-.2-.2,0-.2,.1-.5,.2-.4,0-.8,.4-.9,0-.5,.6-.7,.5-1.1-.2,0-.1,.3-.3,.3,0,0,0,0-.2,0,.4-1,1-1.8,1.5-2.8,0,0-.1-.2-.3-.2,0-.2,.2-.3,.2-.5-.4-.7-1-1.4-1.3-2,0,0,.1,0,.2,0,.4,.5,.9,.9,1.4,1.4,0-.1,.1-.2,.2-.2,0-.2-.2,0-.1-.2,.2,0,.2-.2,.4-.2-.1-.2,.1-.3,.2-.5-.3-.1-.3,0,0-.1,0-.1-.5,0-.6,0,0-.3,.2-.1,.3,0,.6,0,.9-.7,.8-1.1,.6-.3,.9-.8,1.1-1.4,.3,0,.4-.4,.5-.7,.7-.6,1.1-1.6,1.7-2.2,0,0,0-.2,0-.2,0,0,0,0,0,0,.3-.4,.5-1,1.1-1.1,.3-.5,.7-.9,1-1.4Zm3.7,.4c0-.1,.2,.1,.3,0,0-.2-.2-.3-.4-.3,0,0,0,.3,0,.3Zm11.1,9c.2,0,.6,0,.6-.3-.2,.1-.5,.1-.6,.3Zm-14.2,5.6c-.5,0-.7,.6-1.1,.6,.3-.1,.3,0,.6,0,0,0,0-.1,0-.1,.1,0,.2,0,.3,0,0-.1,.2-.2,.4-.3,0-.1,0-.3,0-.4,.2,0,.1,.1,.3,0,0-.2,0-.5-.3-.4,0,.1,0,.2,0,.3Zm.7-.2c0,.1,0,.2,.2,.2,0,0,0,0,0,0,0-.1,0-.2-.2-.2,0,0,0,0,0,0Zm.4,2.1c.3-.1,.5,.1,.6,.4,.1,0,0-.1,.2-.1,0-.4-.8-.6-.8-.3Zm-.4,.2c0,0,.1,0,.2,0,0-.2,.2,0,.1-.2-.1,0-.3,0-.3,.2Zm-1.3,1.6c0,.1-.3,0-.2,.2,.3,.1,.5-.3,.8-.1-.7,.3-1.1,.8-2,.9-.3,.2-.7,1-1.2,.8-.3,.3-.8,.6-1.2,.5,0,.2,.2,0,.2,.2-.2,0-.2,0-.4,.1,0,.1,0,.2,0,.4-.2,0-.2,.1-.3,.2-.3-.2-.6,.4-.8,.5,0,0,0,.1,0,.3,0,0,0,0-.2,0,0,.4-.4,.7-.3,1.2-.4,0-.3,.3-.5,.5,.1,0,.2,0,.2,.1-.6,.2-.3,1.1-.9,1.3,0,.7-.5,1.5-.6,2.2,.2,.2,0,.4,0,.6,.2,0,.3-.2,.4,0-.2,0-.4,.1-.4,.3,0,.1,.1,0,.2,0,0,.1-.1,0-.1,.2,0,.1,.3,0,.3,.2-.1,0-.2,0-.2,0,.2,.6,.7,1.1,.8,1.6,0,0,.1,0,.2,0,0,0,0,0,0,.1,.4,.3,.5,.9,.9,1.2,0,0-.1,0,0,.2,1,.8,1.2,2.2,2.2,2.9,0,.9,.8,1.6,1.2,2.2,.3,0,.5-.3,.8-.4,.3,0,.6,0,.8,0,0,0-.2,0-.2-.1,.3,0,.4,0,.7,0,.3-.7,1.1-.7,1.4-1.4,0-.1-.2,0-.2-.2,.4-.3,1.2-.5,1.1-1.1,.2,0,.3-.1,.4-.2,0-.2,0-.2,0-.3,.1-.1,.3-.1,.4-.3-.2,0-.2,0-.3,0,0-.1,.1-.2,.3-.3,.1,0,0,.1,.2,.1,0-.3,.2-.4,.4-.6-.2,0-.1-.2,0-.1,0-.2-.3,0-.3-.3,.1,0,.2,0,.3,0,0-.3,.2-.4,.2-.7-.2,0,0-.2-.1-.2,.2,0,.2-.1,.3-.2,0-.4,.4-.7,.2-.9,0,0,.2-.1,.2-.2,0-.4,.1-.8,.4-1.1,.3-1.6,.2-3.1-.1-4.4-.4,0-.4-.2-.6-.3,0-.2,.1-.2,0-.4-.2,0,0-.2-.1-.2-.3,.3-.4-.4,0-.3,0-.5-.2-.7-.4-.7,.1,0,.2,0,.2-.3-.2,0-.1,.2-.3,.1,0-.3,0-.5,.3-.5,0,.1,0,.2,.2,.2,0-.3,.5,0,.6,0,0-.3-.3-.4-.3-.7,0-.3,0-.6-.1-.8,0,0-.2,0-.2,0-.1-.2-.2-.3-.3-.5,.2-.2-.2-.5-.3-.6,0-.2,0-.3,0-.6,.3-.5,.6,.4,.8,.3-.3-.4-.5-1.1-.9-1.2,0,0,0,.3,0,.2-.5,.1-.7-.8-1-.9,0,0,0,0,0,0,0,.2,0,.2,0,.3-.1,0-.3,0-.4,0-.1,.1,0,.2-.2,.3,0,0-.2,0-.3,0,0,0,0-.2,0-.2-.2,0-.2,.3-.4,.4,0,.2,0,.2,0,.3,0,0-.1,0-.1,0,0-.2-.2-.3-.4-.3,0,0,0-.1,0,0,0,.2,.2,.2,0,.6Zm-2,.4c.1,0,.3,0,.3,0-.2,0-.1,.1-.2,.2,0,0-.1,0-.2-.1-.2,.2-.3,.3-.4,.5-.1,0-.1-.1-.2-.1-.2,.2-.4,.3-.6,.4,0,.2,.2,0,.1,.2-.2,0-.4,0-.5,.1,.1,.4,.5,0,.8,0,0,0,0,0-.1-.1,.1,0,.3-.2,.5,0,.5-.2,1-.8,1.4-.7,.4-.1,.6-.4,.8-.6-.1,0,0,0,0-.1-.2,0-.6,.3-.7,0,.1,0,.2,0,.3-.1,0,0,0-.1,0-.1-.5,0-.8,.3-1.1,.6Zm6.2,2c.2,0,.2,0,.3,.1,0,1.2,.8,2.2,1.1,3.5,0,0-.1,0,0,.2,.2,.2,.1,.7,.2,1.1,.3,0,.5,0,.4-.3,0,0-.2,.2-.2,0,.2-.1,.1-.7-.1-.7,.2,0,.1-.2,.2-.3-.4-.3,.1-.9,.3-1.2,0,0-.1,0-.1,0,.3-.3-.4-.7,0-1.1-.2-.3-.4-.4-.3-.8-.2,0-.4-.5-.2-.6,0-.5-.3-.9-.8-1,0,0-.2,.2-.4,.2-.2-.3-.3-.8-.6-1,0,.8,.7,1.2,.5,1.9Zm-25.4,1.6c0,0,0,.2,0,.3,.2,0,.2,.1,.3,.1,0-.2,.5,0,.4-.3-.2,0-.4,0-.7,0,0,0,0-.1,0-.2,0,0-.1,0-.1,0,0,0,0,0,.1,0Zm27,4.5c0-.2,.4,0,.3-.3-.2,0-.2,0-.4,0,0,.2,0,.2,.1,.3Zm-4.1,18.7c-.1,0,0-.2-.2-.2-.1,0,0,.4,.2,.2Zm0,.4c0,0,.1,0,.2,0,0-.1-.2-.3-.2-.1,.1,0,0,.2,0,.2Z"/><path class="cls-13" d="M29.6,231c.2-.1,.4,0,.6-.1,0,.4-.4,0-.6,.1Z"/><path class="cls-13" d="M90,231c.1,0,0,.3,.3,.2,0,.2-.4-.1-.3-.2Z"/><path class="cls-13" d="M91.6,232s0,0,.1,0c0,0,0,0,0,.1-.2,0,0,.1-.2,.1,0-.2,.2,0,.1-.3Z"/><path class="cls-13" d="M73.4,233.1c0,0,.3,.3,0,.3-.1-.1,.1-.1,0-.3Z"/><path class="cls-13" d="M40,241.7c.2,.2,.4,.3,.5,.5-.3-.1-.3-.3-.5-.5Z"/><path class="cls-13" d="M37.5,246c0,0,.2,0,.3,.2,0,0-.1,0-.2,0,0,0,0-.2,0-.2Z"/><path class="cls-13" d="M41,247.2c-.3,0-.7,0-.9-.2,0,0,0,0,0,0,0-.2,.8-.1,.9,.2Z"/><path class="cls-13" d="M63.7,254.6c.2-.1,0,0,0,.2,0,0-.1,0-.2,0,0,0,0,0,0-.1,0,0,.2,0,0,0Z"/><path class="cls-13" d="M57.1,196.8c.5,0,.5,.7,.9,.9,.2,.5,.7,.8,1,1.3,.7-.1,.9,.5,1.1,.8,0,0,0,.1-.1,.1,0,.2,.1,.3,.2,.4-.4,.2,0,.7-.2,.9,0,.1,.3,.1,.4,.2-.2,.2-.4,.8,0,.8-.4,0,0,.3,0,.3,.1,.2,0,.3,.3,.3-.1,0-.1,.3,.1,.2-.3,.1-.2,.5-.4,.7,.2,.6,.4,1.2,.8,1.6-.2,.4,.1,.8-.1,1.1,.3,.5,0,1.5-.7,1.1-.4,.1-.5,.5-.9,.5-.5,0-.9-.4-1.4-.3,0-.2,.2-.1,.2-.2-.2-.3-.5,0-.9,0,0,0,0,0,.1,0-.3,0-.7,0-.9-.3-1,.3-.9-.6-1.4-.6,0-.1,.1-.3,0-.5-.1-.1-.2-.3-.5-.2,0-.1,0,0,.1-.1-.2-.1-.2-.4-.5-.5,0-.1,.2,0,.2,0,0-.1,0-.3-.3-.3,0-.8-.5-1.5-.6-2.2,.2-.9-.4-1.7,0-2.7,0-.1-.1-.2-.1-.4,0-.2,.1-.3,.3-.4,0-.1-.2-.4,0-.5,.1,0,.2,.3,.2,.4,0,0,.2,0,.2,.1,0,0,0,0,0-.1,.2,.2,.4,.6,.8,.5,0,0,0,0,0,.2,.7-.2,.2-1.1,0-1.6,0,0,0-.2,.2-.2,0-.2-.1-.4,0-.5,.2,0,0,.2,0,.2,.4,0,.4,.6,.7,1,.3,0,.1-.4,.2-.6,.2,0,.5,.2,.6,.4,.1-.3,.5-.1,.7,0,.2-.1-.3-.8,0-1.1-.2-.3-.5-.5-.5-1Z"/><path class="cls-13" d="M68.8,202.9c0,0,0,0,.1,0,0,.1-.2,0-.3,0,0-.1,0-.2,0-.4,.3,0,.3,.1,.6,0,0,0,0,.2,0,.2-.2,0-.2,0-.3,0Z"/></g><g><path class="cls-12" d="M90.1,8.7c.2,0-.2-.2,0-.3,.2,.3,.4,0,.7,0,0,.1,.3,.1,.2,.3-.1,.2-.7,0-.8,.1,.1,.2,.1,0,.4,0,.3,.4,.7,.8,1.3,1,.1,.7,.8,.8,.9,1.4,.3,0,.4,.2,.8,.2,.4,.5,.5,1.2,1.1,1.4,0,0-.1,0-.1,.1,.4,.4,.4,.9,1,1.2,.1,0,0,.3,.1,.4,0,0,.2,0,.3,.1-.1,.3,.5,.4,.3,.6,.5,.3,.6,.8,1.3,.9,.1,.4,.4,.8,.5,1.1,.7,.5,1.1,1.1,1.7,1.6,.7-.4,1.6-.7,2.4-1-.3-.2-.4-.7-.9-.7-.1-.4-.5-.9-.5-1.2-.3,0-.2-.4-.6-.4,0-.2,0-.3-.1-.5-.7-.2-1.2-.9-1.1-1.3-.6-.5-.8-1.4-.6-2.1-.7-.4-.3-.8-.1-1.6,1.5,.2,3.5,.6,5.4,.3,.3-.7,1.3-.6,2.1-.9,.2-.3,.2-.4,0-.7,.4,.1,.7,0,1,0,0-.2-.2-.1-.2-.2,.3-.3,.8-.5,1.1-.8,.3-.8,.5-1.6,.8-2.3,0-.3,0-.3,0-.5,0-.1,.2-.1,.3-.2-.1-.1,.1-.3-.1-.4,.4-.7,.8-1.3,.8-2.4,.5-.2,.9-.6,.9-1.1,.5-.2,1.1-.8,2-.5,.2,0,.4-.1,.3-.4,.3,.2,.4,.5,.8,.8,0,.2-.3,0-.4,.1,0,.6-.5,1-.4,1.6,.2,0,.4,.2,.2,.4,0,0,.3,0,.4,0,0,.1,.1,.2,.2,.3,.3,0,.3,0,.5,0,.4,.5,.9,.9,.9,1.7,0,.2-.2,.2-.3,.4,.2,.5,.2,.9-.3,1.2,0,.6-.2,.8,0,1.6,.3-.2,.1-.7,.6-.8,.3,.7-.9,1.8-.4,2.6-.1,.4,.1,.6,0,1,.4,.7,0,1.6,0,2.4-.5,.4,0,1.2-.4,1.4,.4,.2,.7-.1,1.1-.2,.9-.2,1.9-.2,2.6-.4,.7,0,1.2-.1,1.5-.4,.6,.1,1.3,0,1.7-.3,3.1-.5,6.5-.8,9.4,0,.2,0,.2,0,.4,0,0,0,.3,0,.3,.2,2.8,.8,5.2,1.9,6.7,3.6,.3,0,.4,.3,.6,.4,0,0,0,0,0,.1,1.1,.7,1.4,2.2,.6,3.2,0,.4,.3,.7,.3,1.1,0,.2-.3,.3-.3,.5,0,.4,0,.9-.5,1.1,0,.9-1.2,1.2-1.3,1.9-1,.3-1.5,.9-2.6,1-.6,.4-1.4,.7-2.1,1.1-.2,0-.1-.1-.3-.1-1.3,.4-3,1-4.3,.4-2.3,1.4-4.9,2.7-7.6,3.8,.9,0,1.9-.4,2.7-.7-.2,.2-.5,.4-.8,.5,.3,.2-.1,.4-.1,.6-.9,0-.9,.8-1.6,1,0,.1,.3,0,.3,0,0,.2-.3,.2-.6,.3,.2,.1,.5,0,.7,0,0-.2,.1-.4,.4-.5,.3,0,.2,.3,.6,.2,0,.1-.2,.2-.2,.3,.1,.1,.6,0,.7,0,0,.3-.6,.2-.8,.5,0,.2,.3,0,.2,.2-.9,.2-2.2,0-3.2,.1-.3,0-.7,.3-.9,0,.3,0,.6,0,.7,0-.6-.3-1.4-.1-2.2-.2-.8-.1-1.4-.5-2.3-.6-1-.1-1.9-.5-2.8-.9,0,.3,.3,.7,.7,.8,0,.3,.3,.8,.6,.9,.1-.2-.3-.3-.3-.6,0,0,.2,0,.3,0,.4,0,.9,.5,.6,.8,1,.7,1.5,1.8,2.4,2.5,0,.5,.4,.8,.9,1,.5,1,1,1.9,2,2.5,.2,.8,.9,1.3,1.2,2.1,.6,.2,.5,.8,1,1,0,.5,.4,.7,.8,.9,0,.1-.1,0-.1,.1,.7,.5,.8,1.5,1.6,1.9,0,.5,.6,1.2,1.4,1.1,.2-.2,0-.4,0-.5,.6,0,.7,.5,.4,.8,.2,.3,.3,.6,.9,.6-.1,.7,.8,.6,.8,1.2,.5,.3,1.2,.7,1.3,1.2,.3,.1,.5,.3,.4,.6,.2,0,.5,0,.6,0,0,.5,1,.5,.9,1,.6,.5,1.2,.9,2,1.2-.4,.5,.4,.6,.8,.8,0,.2-.2,.2,0,.4,.7,.2,1.4,.4,1.4,1.2,.7,.2,.9,.8,1.4,1.1-.3,.4,.2,.7-.1,.9,.1,.1,.5,.3,.3,.6,.6,.2,.5,.7,.1,1.1,0,.2,.4,.2,.6,.2,.1,.4,.1,.5,.3,.8-.4,.4-.2,.8,.3,1-.2,.5,.2,.9-.2,1.4,0,.3,.3,.4,.4,.7-.2,.2-.2,.4,0,.6-.1,0,0,.2-.3,.2,.2,.3,0,.4-.2,.5,0,.2,.2,.2,.3,.3,0,.5,0,.5-.2,1-.5,0-.8,.4-.6,.8-.4,.4-.8,.9-1.1,1.3-.4,0-.5,.2-.7,.4-1.4,0-2.5,.6-3.5,.3-.2,0-.3,.2-.5,.3-1.4,.1-1.4-.8-2.5-1,0-.2-.1-.2-.1-.4-.7,0-.7-.5-1.3-.5-.1-.5-.5-.8-1.1-1,0-.8-.5-1.1-1-1.5,.3-.6-.4-.8-.5-1.3,.1,0,.3-.2,.4-.3-.3-.5-.8-.9-.6-1.5-.2-.1-.3-.3-.5-.4,0-.1,.3-.2,.4-.2-.1-.3-.5-.5-.3-.8,0-.1-.2,0-.3-.1,0-.3,0-.4,0-.7-.1-.1-.4-.1-.6-.2,.6-.4-.2-1-.1-1.6,0-.2-.4-.2-.3-.5-.2,0-.3-.1-.4-.2,.5-1.1-1.4-1.6-.5-2.5-.5-.4-.8-.9-1.3-1.3-.1-.4,0-.7-.1-1-.2-.5-.9-1-1.2-1.6-.3-.5-.5-1-.8-1.5-.1-.1-.3-.2-.4-.4-.1-.2-.2-.5-.3-.8-.2-.3-.6-.7-.7-.9,0-.2,0-.5-.3-.6,0-.1,0-.2,0-.4,.1-.1,.4-.2,.5-.3-.3-.7-1.2-1.5-1.6-2.2,0-.1,0-.3,0-.4-.3-.5-1.1-1-.7-1.6,0-.4-.6-.4-.6-.8-.1,0-.4,0-.6,0-.6-.7-.8-1.6-1.3-2.4-.5-.2-1.1-.6-.9-1.1-.4-.3-.7-.6-.8-1.1,0-.2,.2-.1,.2-.2-.3-.2-.3-.6-.8-.7,0-.1,.2,0,.1-.2-.4-.4-.9-.7-1-1.2-.2,0-.3-.1-.5-.2,.3-.4-.2-.7-.6-.9,0-.1,.1,0,.1-.2-1.1-1.5-2.3-2.9-3.4-4.4-1.6,1.1-3.2,2.2-4.7,3.4,0,.5-.2,.7-.4,1.1,0,0-.1,0-.3,0-.1,.3,0,.6-.1,.9,0,.3-.4,.5-.5,.8-.1,.6,.2,1,0,1.7,.4,0,.4-.3,.8-.2-.1,.4-.6,1-.6,1.6,.4,.7,.1,1.6-.7,2,0,.5-.3,1,0,1.4,0,.2-.6,.3-.8,.2-.4,.1-.3,.7-.2,1-.3,.3-.4,.7-.9,.8-.5,0-1,0-.9,.5-.2,.2-1.5,.8-2,.8-.5,0-.8-.4-1.3-.5,0,0,0-.1,0-.2-.8-.3-1.2-.8-2-1.1-.1-.3-.6-.4-.8-.8-1.6-.4-1.6-1.9-2.9-2.5,0-.2,0-.3-.1-.4-.1-.2-.4-.2-.6-.3,.2-.6-.5-.7-.8-1-.4-.3-.4-.9-.9-1.1,0-.6-.3-.9-.5-1.5-.3,0-.2,.1-.4,.2-.3,0-.6-.2-.5-.4,.2-.1,.6,0,.8,0-.2-.4-.5-.9-.6-1.2-.6-.5-1.3-.8-1.7-1.5,0-.7,.5-1.1,.3-1.6,.4,0,.3-.4,.7-.4,.2-.5,1.4-.4,1.8,0,.3-.1,.6-.3,.6-.6,0,0,.2,0,.2,0,.2,0,.1,0,0,.1,.8,0,.7-.7,1.3-.8-.4,0-.6-.2-.4-.5,.7,0,.8-.2,1.1-.4,.8,0,1.2-.5,1.6-.9,.3,0-.2,.3,.2,.3,.1,0,0-.2,0-.2,.6,0,1-.3,1.4-.6,0,0-.2-.1-.1-.3,.6,.1,.8-.3,1.3-.4-.3,0,0-.2,0-.5,.3,0,.3-.2,.6-.1,0,.1,0,.2,0,.3,.8-.2,1.5-1,2.1-1.5,.9-.2,1.2-.9,2.1-1.1,.2,.1-.1,.1,0,.3,.4,0,.2-.3,.6-.3,0-.1-.3,0-.4,0,.6-.7,1.6-1.2,2.3-1.9-1-1.1-1.9-2.3-3-3.2-.3-.6-.8-1.1-1.3-1.5-.3-1.1-1.8-2-2-3.2-.4-.5-.9-1-1.2-1.8-.1-.3-.6-.6-.9-1,0-.1,0-.2-.1-.4-.3-.4-.9-.5-.2-.8-.2-.2-.2-.5-.4-.7,.3,0,.5-.1,.9-.2,0-.7-1.4-.9-.8-1.7-.1,0-.3,0-.4-.1,0-.1,0-.2,0-.2-.8-.4-2.3-1-1.7-1.9,.5,.3,.7,.9,1.3,1,.3,.7,.7,1.2,1.4,1.6,.2,.5,.5,1,1,1.2-.2,.2,.3,.4,.5,.6Zm21.5-3.2c.3-.2,.7-.2,.8-.5-.2-.1-.8-.2-.9-.3,0,.3,0,.5,.1,.8Zm-20.6,4.4c-.2-.2-.3-.5-.5-.8h-.2c.3,.3,.3,.8,.7,.8Zm.3,.6c0-.5-.6,0,0,0h0Zm-.4,.8c0-.1-.1-.1,0-.2-.2,0,0-.2-.3-.1,0,.2,0,.4,.3,.4Zm.5,.8c0,0,.2,.3,.4,.2-.1,0-.2-.3-.4-.2Zm36.8,14.7c0-.2-.2-.2-.4-.3,.3,0,.3-.2,.5-.2,0,0,.2,0,.1,.2,0,0-.2,0-.2,0,.8,0,.7-.9,1.6-.8,.1-.2,.4-.2,.5-.5,0,0-.3,0-.3,0,1-.8,1.8-1.7,2.5-2.9,.2-.5,0-1-.1-1.4-.3-.1-.7,0-.9,.1-.3-.2,.3-.5,0-.8,0,0,.2,0,.2,0-.2-.2-.6-.3-.7-.5-1-.1-2.1,0-3.1,0-1,.2-2.5,.2-3.6,.3-1.5,.3-3.2,.5-4.4,1-1,.2-2,.5-2.9,.8-2.1,.2-3.5,.7-5.5,.8-.1-.5-1.2-.4-1.6-.4,0,0,.2,0,.3,0,0-.2-.2-.1-.3-.2,.3,0,.2-.4,0-.3-.2,.4-.6,.3-.9,.6-.1,0-.1-.1-.3,0-.8,.3-1.7,.6-2.4,1.1,0,1-.8,1.4-1.4,2,.1,.3,0,.7,.4,.8,.3-.2,.7-.3,.7-.8,.3,0,.4,0,.5-.1,0-.6,.8-.9,.8-1.2,.1,0,0,.1,.1,.1,.3,0,.2-.2,.2-.4,.1,0,.3,0,.4,0-.2-.3,.2-.5,.6-.5,0-.4,.4-.6,.8-.8,.1,.6-.2,1.1-.5,1.5,0,.1,.2,.1,.3,.2-1,.9-2.1,1.7-3.1,2.5,.1,.1,.2,.2,.1,.4,.1,0,.3,0,.4,.2,.2,.7,1.2,1.2,1.4,1.9,.1,0,.4,0,.4,.1,0,.1,0,.1-.1,.2,.3,0,.7,.1,.8,.3-.4,.2-.4-.2-.7-.1,.6,.4,.6,.9,1,1.4,.6,.6,1.8,.6,2.6,1,.2-.4,1.2-.3,.9-.9,.3,0,1.2-.1,1.6,0-.2,.3-.9-.2-1.1,.2,.7,.4,1.9,1,3,.8-.2,0-.2,0-.2-.2,.2,0,.5,0,.6,0,0,.1,0,.1-.1,.2,.3-.2,.8-.4,1.3-.2,.2-.2,.5-.3,.8-.5,0,.1-.2,.2,0,.3,1.8,0,2.4-.9,3.8-1,.1-.1,.3-.2,.5-.2,0-.1,0-.3,.2-.3,.2,0,.2,0,.4,0,0-.1,0-.3,.1-.3,.6,0,1-.2,1.3-.4-.1-.2,0-.4,.3-.3,0,0,0,0,0,0,.8-.3,1.5-.8,1.9-1.3,.2,.1,.4,0,.6,0,0-.1-.1-.1,0-.2,.2,0,.3-.3,.6-.2-.2-.4,1.4-.8,.1-.6Zm-27.3-6.4c.2-.2,.5,0,.7-.3-.3-.1-.9,.1-.7,.3Zm-9.5,5.5c.3,0,.2-.3,.6-.2v-.2c0,0-.2,0-.3,0,0,.2-.4,.3-.3,.5Zm12.7,.4c.2,0,.3,0,.3,0-.1,0,0-.1-.3,0,0,0,0,.1,0,.2Zm-.4,.3c.2,0,.3,.2,.4,.3,.2,0,.3,0,.3-.1-.2,0,0-.3-.3-.3,0,.3-.4,0-.4,.1Zm2.8,2.6h-.1c-.1-.2-.3-.3-.6-.4,0,.3,.5,.4,.7,.4Zm2.6,3.7c0-.3-.4-.6-.7-.5,.3,0,.3,.4,.7,.5Z"/><path class="cls-12" d="M100.8,187.2c0,0,0,0,.2,0-.1-.3-1-.1-1.1-.5-2.1-.5-3-1.9-5-2.5-.3-.4-1.1-.5-1.3-1-.7-.3-1.4-.6-1.6-1.3,.1-.6-.5-.9-.5-1.5,0,0,0-.1-.2-.1,.2-.4-.4-1.2-.3-1.8,0-.2,.3-.3,.3-.5,0-.1,0-.2,0-.3,0-.5,.6-.9,1-1.2-.2-.4,.3-.8,.2-1.1,.2,0,.2,0,.3,0-.1-.3,.2-.5,.2-.8,.6-.6,1.4-1.1,2-1.7,.2,0,.2-.1,.4,0,.3-.5,.7-.9,1.3-1.1,.9-1.2,2.7-1.7,3.7-2.8,.4,0,.4-.2,.6-.2h.3c.2-.1,.3-.3,.6-.3,.7-.6,1.7-1.1,2.4-1.7,.3,0,.2-.1,.4,0,.3-.3,.5-.8,1.1-.9-.4-.7,.7-1,1.3-1.3-.1-.2,.2-.2,.3-.4,0-.2-.2-.6,0-.9-.1-.2-.2-.4-.1-.7-.6-.3,0-1.2-.6-1.5,0-.1,0-.1,.2-.2,0-.1-.2-.2-.3-.4,.3-.7-.4-1.7-.6-2.3-.1,0-.3,0-.4-.2,0-.2,0-.2,0-.3,.1,0,.1,0,.2,0-.1-.3-.3-.5-.2-.8,0,0-.2,0-.3,0-.1-.3,0-.7-.3-.8,0-.1,.2-.2,.1-.3,0-.2-.2-.3-.2-.5-.6-.4-.4-1.3-1.1-1.5,.3-.4-.5-.6-.6-.9-.1-.4,0-.6-.5-.7,0-.7-.7-.8-1-1.4-.5-.4-1-.9-1.3-1.4-.5-.2-.6-.6-1.1-1-.3-.2-.6-.3-.8-.6-.6-.6-1.8-.8-2.4-1.5v-.2c-.5-.1-.6-.6-1.2-.6-.9-1.1-2.7-1.4-3.5-2.5,0,0-.2,0-.3-.2,.1-.1,0-.2,0-.4-.5-.5-.4-1.3-.6-1.9,0,0,.2,0,.2-.1-.2-1.1-.2-2.5,1-3.1,0-.1,0-.2,0-.3,.7-.2,1-1.1,2.1-.9,.2,0,.3-.1,.5-.2,.4,.2,.9,0,1.2,.2,0,.3-.2,.3-.3,.4,0,.4,0,.8,.4,.8,0,.5,.7,.5,.9,.9,1.2,.1,1.5,1,2.6,1.2,0,.5,1.3,.5,1.2,1,.4,0,.6,.2,.9,.3,.6,.5,1.4,.9,2,1.4,.1,0,.2-.1,.2,0,.3,0,.4,.4,.8,.4,0,.1,0,.2,0,.2,.3,.1,.6,.3,.9,.5,0,.5,.7,.6,.9,1,0,0,.1,0,.2,0,0,.1,0,.2,0,.3,.1,0,.3,0,.4,0,.2,.2,.4,.6,.4,.8,.5,0,.5,.5,1,.6,.4,.8,1.4,1.2,2,2,0,.5,.6,.5,.8,.8,.3,.7,1.1,1.3,1.6,2,.2,0,.2,0,.5,0,.4,.3,.5,.8,1,1.1,0,.2,0,.5,.1,.6,.7,.2,.7,.9,1.2,1.3,0,.2,.2,.3,0,.5,.1,.1,.3,.2,.4,.4,.9,.3,.9,1.3,1.5,1.9,0,.1,0,.2-.1,.3,.5,0,.8,.2,.6,.6,.1,0,.1,0,.3,0,.2,0,0-.2,.1-.2,.4-.1,.8-.2,.8-.6,1-.2,1.4-1,2.5-1,.2,0,.2-.1,.4-.1,.6,0,1.2,.2,1.5,.5,1.3,.2,2.4,.5,3,1.3,.2,0,.2,.1,.4,.1,.5,.6,.9,1.3,1.8,1.7,.2,.5,.7,.8,.9,1.3,0,0,.2,0,.3,.1,.3,.6,.2,1.4,.5,1.9-.1,.8-.7,1.3-1.1,1.8-.5,.3-.5,.7-1.2,.8,0,.3-.3,.5-.7,.6-1.3,.7-2.1,1.7-3.7,2.1-.1,.2-.5,.3-.4,.6-.3,0-.4,.3-.6,.5-.3,0-.5,0-.6,.2,0,.1,0,.2,0,.3,.1,0,.2,.2,.3,.2-.4,.4-.6,.7-.9,1.1,0,0,0,.3,.2,.2,0,.1-.1,.2-.2,.3,.2,0,0,.4,.2,.5-.3,.4,0,1.1-.1,1.7,0,.6,.1,1.2,0,1.6,.3,1.2-.5,2.1-.7,3-.8,.3-.8,1.2-2,1.3,0,0,0,0,0,0-.1,0-.7,0-.4,.1-.4,.2-1.1,.2-1.2,.5-.4-.1-.7,0-1,0-1.5,0-2.1-.8-3.6-1-.1-.1-.3-.2-.3-.3-.8,0-.9-.7-1.6-1,0-.4-.2-.6-.6-.6,0-.2-.2-.4-.4-.4-.3,.1-.4,.2-.7,0-.2,0-.2,.2-.3,.3-1.9,.2-3.2,.9-4.5,1.6,0,.2,0,.1,0,.2-.5,.2-1.4,.3-1.6,.9,1.2,.5,2.1,1.1,3.5,1.5,.1,0,.2,0,.3,0,.5,0,.9,.5,1.6,.3,.2,0,.2,.1,.2,.2,.5,.1,1,0,1.5,.2,.5,.1,.7,.4,1.3,.4,.4,0,1,0,1.3,.2,.6,0,1.1,0,1.7,.2,.2,0,.4,.2,.7,.2,.1,0,.2,0,.3,0,.4,0,.6,.3,1,.4,.3,0,.7,0,1,0,.8,0,1.4,.4,2.3,.3,.2,0,.2-.2,.4-.2,.2,0,.2,0,.4,0,.2,0,.2,0,.4,0,.1,.2,.6,0,.7,.2,.1,0,.3,0,.4,0,1,.4,2,.7,3,1.1,0,.2,.2,.1,.2,.3,.8,.3,1.3,.7,2.2,1,.5,.6,1,1,1.6,1.6,.2,0,.3,0,.4,0,.2,.3,.2,.5,.6,.6,.4,.8,.3,1.5,.6,2.2-.1,.4-.2,.9-.7,1.3,.3,.8-.9,.7-.8,1.4,0,.1,.3,0,.3,.2-.5,.4-1.5,.2-2.1,.5-1.2,0-2.1-.1-3.3-.2-.5,0-1.2-.3-1.7-.5-.3,0-.6,0-.8-.1-.4-.1-.6-.4-1-.5,0,0-.2,0-.3,0-.2,0-.4-.2-.7-.3-.2,0-.4,0-.6,0-.3,0-.5-.3-.7-.3-.5-.2-1-.1-1.5-.4-.9-.1-1.8-.2-2.5-.5-1.9,0-3.3-.6-4.8-1,0,0-.3,0-.2,0h.1c-.9-.2-1.9-.2-2.6-.5-1.5-.2-2.3-.8-3.7-1,0-.2-.5-.2-.5-.4-.4,0-.5,0-.8-.2-.2,0-.2,0-.4,0Z"/><path class="cls-12" d="M149.8,93.7c0,0,.1,0,.2,.2,.2,0,.3,0,.4,0,0,0,0,.2,0,.1,0,0,0,0,0,0,0,.1,.2,.1,.3,.2-.1,.3,.1,.6-.2,.9,.1,.3,0,.5,.4,.7,0,0,0,0,0,0,.6,.4,.2,.9,.4,1.4-.4,.5-.3,1-.6,1.3,.3,.4-.6,.4-.5,.8-.6,.2-1,.8-1.7,.9-.3,0-.6,0-1,0,0,0-.2,.1-.1,.2-.6,0-1,0-1.2,.3-.2,0-.3,.1-.5,.1,0,0,.2,0,.3,.1-.1,0-.4,0-.4,0,0,0-.2,0-.3,0,0,0,0,0,0,.2-.2,0-.1-.2-.3-.2-.1,0,.1,0,0,.1,0,0,.3,0,.3,.1-.3,.1-.5,0-.9,0h0c0,.2,.1,0,.3,.1,0,.1,0,.1,.2,.1,0,0-.3,0-.2,.2-.2,0-.3,0-.5,0,0,.2,.2,0,.2,.1-.2,0,0,0,0,.2-.2,0-.3,0-.4,.1,0,0,.2-.1,.1-.2,0,0-.1,0,0,0-.3,.1-.4,.3-.2,.5,0,0,.2,0,.2,0,0,.2,.1,0,.2,.2-.3,0-.3,0-.5,0,.1,0,.2,.2,.4,.2-.1,0-.4,0-.5,0,0,0,.1,.1,.1,.2,0,0,.2,0,.3,0,0,0-.2,.1-.4,.1,0,0,.2,0,.3,0-.1,0-.2,.2-.4,.2,0,0,0,0,.2,0,0,0,0,0-.2,0,0,.2,.2,.3,.2,.4-.2,0,0,0-.3,0,0,0,0,0,0,0-.2,.1-.2,.3,0,.5-.1,.1-.1,.6,.1,.6,1-.2,1.9-.6,2.9-.5,0,0-.2,0-.2,.2,.5,0,.7-.5,1.1-.4,0,.2,0,.3,.1,.3,0,1-1.2,1.1-2,1.5,0,.3-.3,.3-.4,.4,.3,.5-.5,.8-.6,1.2,0,.1,.2,.2,.2,.3-.4,.2-.2,.8-.6,1.1,0,.4,.2,1-.5,1.1,.2,.2-.3,.6,0,.7-.1,0,0,.3-.3,.2,0,0,0,.1,0,.1-.3,.1,0,.3,.1,.5,0,.2-.1,.5-.3,.7,.1,.2,.2,.2,0,.3-.1,.1,.2,0,.2,0,0,0-.2,0-.2,0,0,0,.1,.5,0,.6,0,0,.1,0,.2,0,0,0-.1,0-.2,.1,.3,.2,0,.4,.5,.5,0,.1-.2,.1-.3,.1,.1,0,0,.2,.2,.3,0,0,0,0-.2,0,0,.1,0,.3,0,.3,0,.1,.2,0,.3,.2,0,0-.2,0-.2,.1,0,.1,.2,0,.1,.1h-.1c0,.2,.2,.2,.3,.4h-.2c0,0,0,0,0,0,0,0,.2,0,.1,.1-.1,0,0,.4,0,.6,.2,.8,.5,1.9,.6,2.9,0,.1,0,.3,0,.4,0,.3,.2,.4,.1,.7,0,.4,.3,.9,.3,1.3,0,.4,0,.8,.2,1.1,0,.6,0,1.4,0,2.2-.2,.1-.1,.5,0,.6-.2,0,0,.3,0,.3,0,.2-.3,.2,0,.3-.1,.1-.1,.4,0,.5,0,0-.3,.2,0,.2-.2,0-.2,.2,0,.3-.2,0-.2,.2,0,.3,0,.1-.1,0-.2,0,0,.1,0,.3,.1,.3-.2,0-.3,.2,0,.2,0,.1,0,.2-.2,.2,0,.1,.2,.1,.3,.2-.3,0,0,.2-.3,.4,0,.1,.2,0,.2,0-.1,.2,.2,.2,.3,.3,0,.1,0,0-.2,0,.4,.2,.5,.7,1.2,.6,0,0-.2,0-.3,0,.3,.1,.7,.2,1,.2,0,.3,.5,.2,.5,.4,0,0,.1,0,.3,0,.2,.2,.3,.4,.7,.4,.3,.2,.5,.5,1,.6,.1,0,.2,.2,.3,.3,.2,0,.4,0,.5,.1h.3c.2,.4,1.1,.3,1.3,.6,.3,0,.5,0,.7,0h0c.5,.1,.7,.2,1.3,.2,0,0,.2,.1,.3,.2,.5,0,1.2,0,1.3,.3,.8,0,.9,.4,1.5,.5,.2,.6,.9,.8,1,1.4,0,0,0,.1-.2,.1-.1,.4,.6,.8,0,1.1,.3,.3,.2,1.1-.7,.9,0,0,0,0-.1,.1-.6,0-.8,.3-1.1,.4-.7,0-1.3-.4-1.9-.1,0,.2,.2,0,.3,0,0,0-.1,0-.2,0-.1,.1-.3,.3-.6,.3-.4,0-.7-.4-1-.3,0-.2-.3-.2-.4-.3-.3,0-.4,0-.7,0,0-.2-.3-.3-.6-.3,0,0,.2,0,.1-.1-.2-.2-.6-.3-1-.3,0,0,0,0,0-.1-.3,0-.4-.1-.6-.1,0,0,0-.2-.2-.2-.2,0,.1,.2,0,.1,0-.1,0,0,0-.2,0,0-.2,0-.2,0,0-.2,.3,0,.4-.2,0-.1-.3,0-.4-.1-.4,.3-.6-.2-.9-.1-.1,0,0-.2-.1-.3-.3,0-.6,0-.6-.3-.2,0-.4,0-.4-.1h.1c0-.1-.2,0-.3,0,0-.2-.5,0-.5-.1,0,0,0-.2,0-.2-.2-.1-.5-.2-.8-.2-.1-.1-.4-.4-.3-.5-.2,0-.2-.2-.4-.3,0,0,.1,0,0-.1-.2-.3-.7-.3-1-.5-.2,0-.3,0-.4,0,0,.5-.6,.7-.5,1.1-.1,0,0,0-.2,0,0,0-.1,.1,0,.1-.4,.1-.4,.5-.8,.6,0,.1,0,0,0,.2-.1,0-.2,0-.3,0,0,0,0,0,0,.2-.2,0-.3,.2-.5,.2,0,.1,.2,0,.2,0,0,.1-.2,.1-.3,.2-.3,0-.5,0-.7,.2,0,.1-.1,0-.1,.2-.2,0-.2,0-.4,0,0,0,0,.1,0,.2,0,0,0,0,0,0-.3-.1-1,.3-1.3,.1,0,0,0,0,0,.1-.3-.2-.7,0-1.1,0-.6,0-1.1-.3-1.5-.2,0,0,0,0,0-.1-.3,0-.4,0-.6,0,0,0,0,0,0,0-.4-.3-1.2,0-1.5-.2-.4,0-.7-.2-.9-.1,0,0,0,.1,0,.1-.1,0-.3-.2-.5,0,0,0,0-.2,0-.2,0,0,0,0,0,0-1.5-.5-3.4-1-4.9-1.7-.1,0,0,0,0,.1-.8-.1-.9-.7-1.6-.9,0,0,.1,0,0-.1-.1,0-.3,0-.4-.1,0,0,0,0,0-.1-.3-.1-.2-.3-.5-.3,0-.2-.2-.2-.2-.4,0,.1,0,0-.2,0,0,0,0,0,0-.1-.1,0-.2,0-.3-.1h.2c-.2-.4-.9-.6-.7-1.1,0,0-.2-.2-.4-.2,0-.1,0-.5-.2-.5,0,.1,.2,0,0,.2-.2,0-.2-.2-.1-.3-.3,0-.3-.3-.6-.3,0-.1,0-.1,.2-.1-.6-.3-.7-.8-1.1-1.1,.1-.2-.2-.3-.3-.5,0,0,.4-.2,.2-.3,0,0,.1,0,.2-.1-.6-.1-.3-.6-.5-1.1,.2-.3,.7-.4,.6-.7h.1v-.3c.7-.3,1.9-.4,2.6-.5,0,0,.3,0,.4,0,.1,0,.2,0,.3,0,.4,0,1.1,.2,1.3,0,.3,0,.8-.3,.9,0,.7,.1,1.3-.2,2-.2,.4,0,.8,.1,1.2,0,.5,0,1.2,0,1.8,0,.7,0,1.3-.2,1.8,0,1.2-.3,2.5,.3,3.4,.5,.7-.2,1.3,.6,2.2,.4,0-.1-.1-.2,0-.3,.2,0,0,0,.2,0-.2-.3,.4-.7,0-1,.2-.1,.3-.4,0-.5,0,0,.1,0,.2-.1,0-.2-.2-.6,0-.7-.3-.4,.1-1.2-.4-1.6,.2,0-.2-.5,0-.5-.2-.1,0-.5-.3-.6,0,0,0,0,0-.1-.2-.3,0-.9-.3-1.1,.2-.2,0-.8-.3-1.1,.3-.4-.3-1-.1-1.4,0-.1,0-.2-.2-.2,.2-.6-.2-1.2-.3-1.9,0-.1,.1-.2,0-.3,0-.3,0-.6-.4-.7,0,0,.1,0,.2,0,0-.1-.2-.3,0-.4,0,0,0-.2-.2-.2,0-.1,0-.1,.1-.2,0,0-.2-.1,0-.1,0-.1-.1,0-.1,0,0-.1,.1,0,.1-.1,0-.1-.1,0,0-.2-.2,0-.3,0-.3,0-.2-.1,.2,0,.3-.2,0,0-.2,0-.2,0,0,0,0,0,.1,0,0,0,0,0-.1,0,0-.1,.1,0,.1-.1,0,0-.2,0-.2,0,0-.1,.2,0,.1-.1-.1-.1-.2,0-.3,0,0-.1,0,0,0-.1-.2,0-.1,.1-.3,.1,0,0,0,0,0-.1,0,0-.2,0-.2,0,0,0,.1,.2,.3,.2-.3,0-1.2-.2-1.5,.1,0,0,0,0,0,0-.2,0-.5,0-.8,0,0,0,0,0,.1,.1-.4,0-1.2-.1-1.5,.1-.5-.3-1.3,.1-2-.2-.6,.1-.9-.2-1.4-.1-.5-.2-1.1-.3-1.6-.5-.4-.3-1.4-.3-1.5-.8-.5-.2-.9-.5-1.3-.8-.3-.3-.5-.8-.9-1,0-.2,0-.6-.4-.6-.1-.2,0-.4-.3-.5,0-.2,0-.3-.2-.4,0-.2,0-.3-.1-.5,0-.4,0-.6-.3-.8,0-.5-.8-1.1-.3-1.6,0-.1-.1,0,0-.2,.4,0,.7,.3,1,.3,.3,0,.7,0,1,0,.6,0,1,.4,1.5,.6,0,0,0,0,0,.2,.6,0,.7,.4,1.2,.4,0,0,.1,.1,.1,.2,1,.2,2,.5,3.1,.7,.8,0,1.8,0,2.6-.2,1-.2,2.2-.3,2.8-.7,.2,0,.2-.1,.4-.1-.2-.2,.2-.3,.1-.6,0,0,.2,0,.2-.1,0-.2-.3-.2-.3-.4,.2,0,.2-.1,.3-.2,0-.5-.3-1-.4-1.5,0-.3,.2-.8-.2-1,0,0,0,0,0-.1,0-.1-.3-.2-.6-.1,0,0,.2,0,.3,0,0,0,0-.1,0-.1,0-.1,.2,.1,.3,0-.2-.2-1,0-1.1-.3-.3-.2-.7-.2-1-.3,0,0,0-.1,.1-.1,0,0-.2,0-.3,0,0,0,.2,0,.1,.2-.2,.1-.2,0-.3,0,0,0,0-.1,0-.1,0,0-.2,0-.4,0,0-.1,.1,0,.1-.2-.2,0-.4,0-.6-.1,0-.3,0-.6,.1-.7,0,0-.3,0-.3-.1,0-.2,.2-.3,.3-.6-.2-.2,0-.4,.1-.6,.2,0,.2,0,.3,0,0-.2,0-.2,0-.3,.5,0,.8-.4,.9-.7,.2,0,.3-.1,.5-.1-.2-.8,.8-1.2,.5-1.9,.2-.2,0-.4,0-.6,.3-.2,0-.5,0-.7,0-.2,.1-.5,0-.7,0-.2-.2-.3-.2-.5,0-.2,.2-.5,0-.6-.3,0,0-.4-.5-.5,.2-.1-.2-.4-.2-.6-.2,0-.3,.2-.6,0,0-.1,.4,0,.5,0,0-.1-.2-.2-.5-.2,0,0,0-.2-.2-.1,0-.1,.1,0,.2,0,0,0-.2,0-.3,0,.1-.1,0-.1-.1-.2,0-.1,.2,0,.3-.2-.2,0-.2,0-.2-.2-.2,0-.2,.1-.3,0,0,0,.1-.1,.3,0,0-.2-.4-.3-.5-.3,0-.1,0-.3-.4-.3,0,0,0,0,0-.2,0,0,0,0-.2,0,0,0,0,0,0,0-.4-.2-.7-.3-1-.5,0,0,0,0,0,0,0,0-.1,0-.2,0-.3-.2-.3-.8-.9-.8-.2-.3-.5-.5-.7-.8-.2,0-.4-.2-.6-.3,.3-.1-.2-.2-.3-.3,.1-.2-.2-.3-.4-.4,0-.3-.4-.4-.6-.5,0-.3-.5-.3-1-.3-.4-.3,.1-.5,.3-.7,1.3,0,2.2-.2,3.2-.1,.6,0,1,.4,1.7,.3,.3,.2,.8,.1,1.1,.3,0,0,0,0,0,0,0,0,.2,0,.4,0,0,0-.1,0-.3,0,.6,.1,1.1,.2,1.6,.2,.2,0,.2-.2,.5-.2,0,0,0,0-.1-.1,0,0,0,0,.1,0,0-.1,0-.2-.2-.2,.2,0,0-.3,.2-.2-.1,0,0-.1-.1-.2,.2-.3,.3-.3,.3-.6,0,0-.2,0-.2,0,.3,0,.2-.2,.3-.3,0,0,0,0-.1-.1,0-.1,0-.2,0-.3,0,0-.1,0-.3,0,0,0-.1,0,0-.2,0,0,.3,.1,.4,0-.2-.1-.4-.3-.2-.4,0,0,0,0-.2,0,0-.1,.2,0,.2-.1,0-.1,0-.2-.2-.1,0-.1,.2,0,.1-.1-.1-.4-.2-1-.7-1.2-.1-.3,.2-.5,.4-.7,.6,0,1.4,0,1.8,.2,.3,.4,.8,.7,1.5,.9,0,.2,.2,.4,.5,.4,.3,.5,.3,1,.8,1.4,0,.5,.2,.9,.5,1.3,.2,.3-.1,.9,0,1.2,0,0,.2,0,.2,0,0,0-.1,0-.1,0,0,0,0,.2,0,.3,0,.1-.3,.3,.2,.3,0,0-.2,0-.2,.1,0,.2,.3,.5,.3,.5,0,0,.2,0,.3,.1,0,.6,.5,.7,.5,1.2,0,0,.3,0,.3,.1h-.2c0,.1,0,0,0,.2,0,0,.4,0,.3,.1,.5,0,.5,.2,.8,.3-.2,.2,.3,.4,.4,.6,.4,0,.5,.2,.4,.4,0,.1,.2,.1,.4,.1,0,0,0,0,0,.1,.3,0,.4,0,.5,.2,.2,0,.3,.2,.5,.2,0,0,0,0,0,.1,.1,0,.2,.2,.3,.3,.7,0,1.1,.2,1.4,.5,.3,0,.5,0,.8,0,.4,.3,1.1,.1,1.5,.5,0,.3,.4,.4,.4,.6,0,0,0,0,.2,0,0,0-.2,0-.1,.2,0,0,0,.1,.2,.1,.2,0,0-.1,0-.1,.1,0,0,0,.2,0,0,0-.1,0-.2,0Zm-15.4,36.7c-.3,0-.6,0-.9,0-.3,.2-1.2,0-1.4,.3,.2,.2,.7,.1,.8,.4,.6,0,1,.2,1.5,.3,.8,0,1.6,0,2.5-.3,0,0,0-.2,.3-.2,0-.2-.2-.2-.4-.1,0-.3-.7-.2-1-.4-.4,.1-1,0-1.5,0Z"/><g><path class="cls-11" d="M49.2,73.1l-3.4,6-3.4-6c-25.2,30.7,3.4,41.1,3.4,41.1,0,0,28.7-10.4,3.4-41.1Z"/><path class="cls-1" d="M2.1,101.7l4.6,5.1-6.7,1.4c21.4,33.5,40.1,9.4,40.1,9.4,0,0-1-30.5-38-16Z"/><path class="cls-8" d="M15,153.6l6.3-2.8-.7,6.9c38.5-10,21.3-35.2,21.3-35.2,0,0-29.3-8.5-26.9,31.2Z"/><path class="cls-10" d="M88.6,101.7l-4.6,5.1,6.7,1.4c-21.4,33.5-40.1,9.4-40.1,9.4,0,0,1-30.5,38-16Z"/><path class="cls-9" d="M75.7,153.6l-6.3-2.8,.7,6.9c-38.5-10-21.3-35.2-21.3-35.2,0,0,29.3-8.5,26.9,31.2Z"/><path class="cls-6" d="M41.5,119.3c0,2.3,1.9,4.2,4.2,4.2s4.2-1.9,4.2-4.2-1.9-4.2-4.2-4.2-4.2,1.9-4.2,4.2Z"/></g><path class="cls-5" d="M189,56.9l-3.1-1,1.9-2.7c-7.3-4-11.4-3.3-13.8-1.1,.7-2.8-.4-6.6-5.7-11.6l-2,2.7-2-2.7c-5.4,5.1-6.4,9-5.7,11.8-2.3-2.3-6.4-3.1-14,.9l1.9,2.7-3.1,1c3.4,7.2,7,9.2,10,9-2.2,1.9-3.5,5.6-2.2,12.8l3.1-1v3.3c8-1.1,11-3.9,11.8-6.9,.7,3,3.7,5.8,11.7,6.9v-3.3l3.2,1c1.3-7.2,0-10.9-2.2-12.8,3,.1,6.6-1.9,10-9Z"/><path class="cls-3" d="M201.1,107.3l-2.2-.7,1.3-1.9c-5.1-2.8-8-2.3-9.6-.8,.5-2-.3-4.6-4-8.1l-1.4,1.9-1.4-1.9c-3.8,3.6-4.5,6.3-4,8.3-1.6-1.6-4.5-2.2-9.8,.7l1.3,1.9-2.2,.7c2.4,5,4.9,6.4,7,6.3-1.5,1.3-2.5,3.9-1.6,8.9l2.2-.7v2.3c5.6-.7,7.7-2.7,8.2-4.8,.5,2.1,2.6,4.1,8.2,4.8v-2.3l2.2,.7c.9-5,0-7.6-1.6-8.9,2.1,0,4.6-1.3,7-6.3Z"/><path class="cls-4" d="M172,152.4l-1.5-.5,.9-1.3c-3.6-1.9-5.6-1.6-6.7-.5,.3-1.4-.2-3.2-2.8-5.7l-1,1.3-1-1.3c-2.6,2.5-3.2,4.4-2.8,5.8-1.1-1.1-3.2-1.5-6.8,.5l.9,1.3-1.5,.5c1.7,3.5,3.4,4.5,4.9,4.4-1.1,.9-1.7,2.7-1.1,6.3l1.5-.5v1.6c3.9-.5,5.4-1.9,5.8-3.4,.4,1.5,1.8,2.9,5.7,3.4v-1.6l1.5,.5c.6-3.5,0-5.3-1.1-6.3,1.5,0,3.2-.9,4.9-4.4Z"/><path class="cls-2" d="M177.1,181l-1.1-.4,.7-.9c-2.5-1.4-3.9-1.1-4.7-.4,.2-1-.1-2.3-2-4l-.7,.9-.7-.9c-1.9,1.8-2.2,3.1-1.9,4.1-.8-.8-2.2-1.1-4.8,.3l.7,.9-1.1,.4c1.2,2.5,2.4,3.1,3.4,3.1-.8,.6-1.2,1.9-.8,4.4l1.1-.3v1.1c2.7-.4,3.8-1.3,4-2.4,.3,1,1.3,2,4,2.4v-1.1l1.1,.3c.5-2.5,0-3.7-.8-4.4,1,0,2.3-.6,3.4-3.1Z"/><path class="cls-2" d="M154.7,191.8l-1.1-.4,.7-.9c-2.5-1.4-3.9-1.1-4.7-.4,.2-1-.1-2.3-2-4l-.7,.9-.7-.9c-1.9,1.8-2.2,3.1-1.9,4.1-.8-.8-2.2-1.1-4.8,.3l.7,.9-1.1,.4c1.2,2.5,2.4,3.1,3.4,3.1-.8,.6-1.2,1.9-.8,4.4l1.1-.3v1.1c2.7-.4,3.8-1.3,4-2.4,.3,1,1.3,2,4,2.4v-1.1l1.1,.3c.5-2.5,0-3.7-.8-4.4,1,0,2.3-.6,3.4-3.1Z"/><path class="cls-2" d="M154.7,220.6l-1.1-.4,.7-.9c-2.5-1.4-3.9-1.1-4.7-.4,.2-1-.1-2.3-2-4l-.7,.9-.7-.9c-1.9,1.8-2.2,3.1-1.9,4-.8-.8-2.2-1.1-4.8,.3l.7,.9-1.1,.4c1.2,2.5,2.4,3.1,3.4,3.1-.8,.6-1.2,1.9-.8,4.4l1.1-.3v1.1c2.7-.4,3.8-1.3,4-2.4,.3,1,1.3,2,4,2.4v-1.1l1.1,.3c.5-2.5,0-3.7-.8-4.4,1,0,2.3-.6,3.4-3.1Z"/><path class="cls-2" d="M125.1,220.6l-1.1-.4,.7-.9c-2.5-1.4-3.9-1.1-4.7-.4,.2-1-.1-2.3-2-4l-.7,.9-.7-.9c-1.9,1.8-2.2,3.1-1.9,4-.8-.8-2.2-1.1-4.8,.3l.7,.9-1.1,.4c1.2,2.5,2.4,3.1,3.4,3.1-.8,.6-1.2,1.9-.8,4.4l1.1-.3v1.1c2.7-.4,3.8-1.3,4-2.4,.3,1,1.3,2,4,2.4v-1.1l1.1,.3c.5-2.5,0-3.7-.8-4.4,1,0,2.3-.6,3.4-3.1Z"/><path class="cls-7" d="M136,247.6l-1.1-.4,.7-.9c-2.5-1.4-3.9-1.1-4.7-.4,.2-1-.1-2.3-2-4l-.7,.9-.7-.9c-1.9,1.8-2.2,3.1-1.9,4.1-.8-.8-2.2-1.1-4.8,.3l.7,.9-1.1,.4c1.2,2.5,2.4,3.1,3.4,3.1-.8,.6-1.2,1.9-.8,4.4l1.1-.3v1.1c2.7-.4,3.8-1.3,4-2.4,.3,1,1.3,2,4,2.4v-1.1l1.1,.3c.5-2.5,0-3.7-.8-4.4,1,0,2.3-.6,3.4-3.1Z"/></g></g></g></svg>